<?xml version="1.0" encoding="UTF-8"?>
<svg version="1.1" xmlns="http://www.w3.org/2000/svg" width="1254" height="1254">
<path d="M0 0 C413.82 0 827.64 0 1254 0 C1254 413.82 1254 827.64 1254 1254 C840.18 1254 426.36 1254 0 1254 C0 840.18 0 426.36 0 0 Z " fill="#FDFCFD" transform="translate(0,0)"/>
<path d="M0 0 C10.84192592 9.57674169 18.10860207 20.17746682 25.03515625 32.81640625 C26.26774041 35.04193743 27.50082411 37.26719201 28.734375 39.4921875 C29.34974121 40.6054541 29.96510742 41.7187207 30.59912109 42.86572266 C33.317097 47.76306237 36.08233466 52.63319848 38.84765625 57.50390625 C44.22791594 66.99959554 49.53281024 76.53598275 54.82397461 86.08154297 C58.8193509 93.28318691 62.84803423 100.46472059 66.91015625 107.62890625 C75.53710796 122.85138275 84.02152001 138.15334917 92.4609375 153.48046875 C92.96558281 154.39687889 92.96558281 154.39687889 93.48042297 155.33180237 C93.81680283 155.94265182 94.15318268 156.55350128 94.49975586 157.18286133 C94.83586884 157.79320221 95.17198181 158.40354309 95.51828003 159.03237915 C96.19568669 160.26246963 96.8730346 161.49259247 97.55032349 162.7227478 C102.55618781 171.81149612 107.63339371 180.85766634 112.75830078 189.87988281 C116.88709891 197.1638872 120.90329598 204.50501341 124.89379883 211.86547852 C128.47375344 218.45308806 132.14127694 224.98670818 135.84765625 231.50390625 C140.86340886 240.3263637 145.7307727 249.21991258 150.53930664 258.15673828 C154.2027786 264.94769829 157.963196 271.67605388 161.78515625 278.37890625 C167.65044883 288.67769357 173.26170701 299.10484111 178.83616638 309.5625 C182.3894774 316.22842184 185.97466536 322.87560883 189.59765625 329.50390625 C190.32505005 330.834823 190.32505005 330.834823 191.06713867 332.19262695 C192.51412022 334.8384321 193.96209874 337.48368986 195.41015625 340.12890625 C202.38794745 352.88521738 209.3257103 365.66186566 216.20532227 378.47143555 C218.90553848 383.49501606 221.61324954 388.51344583 224.3671875 393.5078125 C230.7963552 405.17165773 236.95652158 416.95476984 243.02612305 428.80831909 C247.3175312 437.18595862 251.65641776 445.52163058 256.22265625 453.75390625 C261.85816893 463.92337248 267.1279337 474.27329406 272.41015625 484.62890625 C278.10683422 495.79402886 283.8258419 506.92945589 289.89453125 517.8984375 C294.50915727 526.25116839 298.9575287 534.68913489 303.41015625 543.12890625 C311.82510089 559.0678373 320.3230275 574.95402731 329.22265625 590.62890625 C332.48791674 596.38103035 335.48064112 602.2264489 338.3984375 608.1640625 C340.93849828 613.24285349 343.6832753 618.21126493 346.41015625 623.19140625 C346.92916504 624.14096191 347.44817383 625.09051758 347.98291016 626.06884766 C350.20555318 630.12878165 352.43592174 634.1835161 354.703125 638.21875 C355.32832031 639.34410156 355.95351563 640.46945312 356.59765625 641.62890625 C357.12746094 642.56734375 357.65726563 643.50578125 358.203125 644.47265625 C359.53882084 647.41205163 360.03148932 649.9289626 360.41015625 653.12890625 C360.52359375 654.03769531 360.63703125 654.94648437 360.75390625 655.8828125 C361.24544673 664.71825264 358.536756 670.99072641 353.41015625 678.12890625 C347.41784252 684.49187856 338.54424704 688.20776079 329.884552 688.64356995 C327.86216295 688.67003289 325.83941611 688.67516931 323.81689453 688.66235352 C322.70329559 688.67096909 321.58969666 688.67958466 320.44235229 688.6884613 C316.78814964 688.71102666 313.13471985 688.70439869 309.48046875 688.6953125 C306.92275771 688.70055259 304.36504861 688.70683048 301.80734253 688.71409607 C296.45625691 688.72448327 291.10544766 688.72029634 285.75439453 688.70532227 C279.59777468 688.68841496 273.44186465 688.7042292 267.28532231 688.73654515 C261.32763827 688.76661472 255.37017208 688.76839392 249.41241074 688.75904655 C246.8935949 688.75823006 244.37476396 688.76503531 241.85599136 688.77981758 C238.32421426 688.79736791 234.79392613 688.78263123 231.26220703 688.76000977 C230.23637512 688.77170197 229.21054321 688.78339417 228.15362549 688.79544067 C217.54527645 688.65819548 207.02683259 684.68211869 199.41015625 677.12890625 C193.40546602 669.75776156 188.73013489 661.71895668 184.22265625 653.37890625 C183.24457035 651.59003536 182.26378885 649.80265836 181.2829895 648.01527405 C180.62119546 646.80867693 179.96028388 645.60159538 179.30026245 644.39402771 C175.63055323 637.68375945 171.84955309 631.03768925 168.06616211 624.39111328 C165.41298603 619.7168037 162.80218217 615.02572094 160.26171875 610.2890625 C159.75995117 609.35763428 159.25818359 608.42620605 158.74121094 607.46655273 C157.7934935 605.70094435 156.85360765 603.93110239 155.92285156 602.15649414 C155.50358398 601.37653076 155.08431641 600.59656738 154.65234375 599.79296875 C154.28995605 599.1067041 153.92756836 598.42043945 153.55419922 597.71337891 C152.41063451 595.80460458 152.41063451 595.80460458 149.41015625 595.12890625 C148.44078125 595.60328125 147.47140625 596.07765625 146.47265625 596.56640625 C141.36882223 598.98632755 135.92833577 598.3735546 130.41015625 598.12890625 C130.46236328 599.36253906 130.46236328 599.36253906 130.515625 600.62109375 C130.75677357 610.56560154 129.88173675 619.17810735 123.41015625 627.12890625 C117.96670766 632.57235484 112.22219484 634.88296828 104.53515625 635.37890625 C101.41015625 635.12890625 101.41015625 635.12890625 98.41015625 634.12890625 C98.53390625 636.04703125 98.53390625 636.04703125 98.66015625 638.00390625 C98.63546095 645.85701318 95.5121582 652.86262934 90.1875 658.59375 C84.02106263 663.91992557 77.71713953 666.28732272 69.66015625 666.19140625 C68.6753125 666.18238281 67.69046875 666.17335938 66.67578125 666.1640625 C65.55429688 666.14666016 65.55429688 666.14666016 64.41015625 666.12890625 C64.20390625 667.26328125 63.99765625 668.39765625 63.78515625 669.56640625 C62.00418174 676.54188976 58.3216834 682.23136956 52.22265625 686.12890625 C47.70326359 688.69613521 44.10198005 689.26559955 38.91015625 689.25390625 C37.76546875 689.25648438 36.62078125 689.2590625 35.44140625 689.26171875 C32.41015625 689.12890625 32.41015625 689.12890625 29.41015625 688.12890625 C29.36890625 688.95390625 29.32765625 689.77890625 29.28515625 690.62890625 C27.36717994 698.30081149 22.08178684 702.79648481 15.65625 707 C9.53776957 710.07520147 2.06760048 709.91826765 -4.58984375 709.12890625 C-11.33884051 706.75160006 -17.51989085 703.19885915 -22.58984375 698.12890625 C-22.58984375 697.46890625 -22.58984375 696.80890625 -22.58984375 696.12890625 C-23.57984375 696.12890625 -24.56984375 696.12890625 -25.58984375 696.12890625 C-25.8115625 696.68449219 -26.03328125 697.24007812 -26.26171875 697.8125 C-28.01155919 700.86442759 -30.23523222 702.83231138 -32.83984375 705.19140625 C-33.773125 706.04863281 -34.70640625 706.90585937 -35.66796875 707.7890625 C-41.83283372 712.72589956 -46.63109681 713.74736858 -54.39453125 713.53515625 C-60.07703755 712.81268601 -63.32841232 710.52890579 -67.18359375 706.4375 C-70.82988708 701.58590415 -71.14836476 697.00406847 -71.15625 691.05859375 C-69.98804264 685.0161419 -65.5728857 680.87350339 -61.30859375 676.6875 C-60.8132312 676.19733902 -60.31786865 675.70717804 -59.80749512 675.2021637 C-58.23969225 673.65200556 -56.66531691 672.10876498 -55.08984375 670.56640625 C-53.51526928 669.01961271 -51.94225567 667.47130993 -50.37219238 665.91993713 C-48.9487049 664.5141463 -47.52038676 663.11325187 -46.09179688 661.71264648 C-43.56451849 659.18859321 -43.56451849 659.18859321 -41.46289062 656.44165039 C-38.55599355 652.85235999 -35.14483129 650.58156152 -30.60546875 649.77734375 C-24.56646509 649.51986685 -19.93427222 651.60230166 -14.90234375 654.87890625 C-9.59827264 660.03962409 -8.30733438 663.80248489 -8.02734375 671.12890625 C-8.17800911 677.58012307 -9.50261173 680.30806848 -13.58984375 685.12890625 C-13.44068077 687.82449433 -12.821434 688.88906457 -10.9453125 690.83203125 C-5.49351996 694.7219589 -1.12489975 696.05653349 5.59375 695.73046875 C9.97306979 694.79508006 12.64834146 692.57894026 15.41015625 689.12890625 C17.08432323 685.7805723 17.23799522 682.70801109 16.41015625 679.12890625 C14.19158645 675.78951733 11.38725106 673.15041913 8.4921875 670.39453125 C7.68279221 669.59408386 6.87339691 668.79363647 6.03947449 667.96893311 C3.45205121 665.41958236 0.83793546 662.8996399 -1.77734375 660.37890625 C-3.51934875 658.66846811 -5.25960435 656.95624633 -6.99804688 655.2421875 C-15.0289477 647.19823994 -15.0289477 647.19823994 -23.59130859 639.74560547 C-25.58984375 638.12890625 -25.58984375 638.12890625 -26.1484375 636.05859375 C-25.81206597 630.35112847 -25.81206597 630.35112847 -23.58984375 628.12890625 C-20.94873047 627.55444336 -20.94873047 627.55444336 -17.58984375 628.12890625 C-14.6824783 630.20328473 -12.30559177 632.74047193 -9.84765625 635.3203125 C-9.1204538 636.05837631 -8.39325134 636.79644012 -7.64401245 637.55686951 C-5.31974685 639.92130749 -3.01690276 642.30536035 -0.71484375 644.69140625 C1.58416549 647.04812009 3.88742339 649.40057638 6.19290161 651.7509613 C7.6245943 653.2133745 9.05187161 654.68012871 10.47384644 656.1519928 C14.92160201 660.73062054 19.5547685 664.98743757 24.41015625 669.12890625 C25.70285865 670.25271597 26.99467222 671.37754984 28.28515625 672.50390625 C31.96876306 675.70778752 34.28188788 676.42069599 39.3125 676.34765625 C43.49391125 675.91160591 46.43611959 674.20370532 49.22265625 671.12890625 C51.20381574 667.79221659 52.11044799 664.34421841 52.04064941 660.45300293 C50.57801898 655.06151778 45.62978417 651.39741452 41.70703125 647.64453125 C40.70595937 646.65840312 39.70665604 645.67047671 38.70904541 644.68084717 C36.08433221 642.08658457 33.43652012 639.51722059 30.78302002 636.95245361 C28.09365891 634.34481817 25.42666305 631.7145325 22.7578125 629.0859375 C18.05595677 624.46050933 13.33507321 619.85544745 8.59954834 615.26446533 C7.87704895 614.55973083 7.15454956 613.85499634 6.41015625 613.12890625 C5.65301331 612.44141296 4.89587036 611.75391968 4.11578369 611.04559326 C2.41015625 609.12890625 2.41015625 609.12890625 2.53515625 606.00390625 C3.41015625 603.12890625 3.41015625 603.12890625 5.41015625 601.12890625 C9.05886442 600.63547209 10.77922828 600.67359408 13.80029297 602.85375977 C14.55584473 603.64709717 15.31139648 604.44043457 16.08984375 605.2578125 C16.93675781 606.12857422 17.78367187 606.99933594 18.65625 607.89648438 C19.52378906 608.81880859 20.39132812 609.74113281 21.28515625 610.69140625 C23.00933279 612.48666953 24.73586272 614.27967585 26.46484375 616.0703125 C27.30595703 616.94421631 28.14707031 617.81812012 29.01367188 618.71850586 C31.66619643 621.38643321 34.45016583 623.82048954 37.31103516 626.2590332 C42.30654793 630.70897881 46.90252927 635.60680533 51.57568359 640.39038086 C52.94835351 641.79326379 54.32760921 643.18969324 55.70703125 644.5859375 C56.51495117 645.4106958 57.32287109 646.2354541 58.15527344 647.08520508 C62.94217563 651.42378869 67.10748317 651.67835344 73.421875 651.578125 C77.33330746 650.99013189 79.30351393 649.62709177 82.10546875 646.9296875 C85.6308844 642.0637695 86.40349504 636.61332624 86.28613281 630.72827148 C84.41494042 623.03958991 77.87857632 618.14819023 72.28515625 612.91015625 C70.93676281 611.59876004 69.59159226 610.28404262 68.24951172 608.96618652 C64.72557461 605.51986969 61.16658718 602.11233359 57.59643555 598.71398926 C51.8744158 593.25682458 46.20398469 587.74638867 40.54107666 582.22801208 C38.55922432 580.30846764 36.56020716 578.40827523 34.55810547 576.5098877 C33.34425988 575.33975801 32.13085658 574.16916928 30.91796875 572.99804688 C30.35692444 572.47540253 29.79588013 571.95275818 29.21783447 571.41427612 C26.85582195 569.10800389 25.49541527 567.69521594 24.99560547 564.37536621 C25.41015625 562.12890625 25.41015625 562.12890625 26.53515625 560.31640625 C29.49172418 558.44391323 30.9488457 558.47582879 34.41015625 559.12890625 C39.42280715 562.49105015 43.28552409 567.04595899 47.15625 571.6171875 C52.1000346 577.12646566 57.46336016 582.25231475 62.72290039 587.45800781 C65.76822185 590.47380582 68.79626333 593.50600022 71.8046875 596.55859375 C76.24272924 601.04682336 80.72785741 605.37476288 85.53515625 609.46484375 C87.49503608 611.2042371 89.28859855 613.04657426 91.09765625 614.94140625 C94.83557376 618.70463697 97.51508373 619.95662693 102.84765625 620.44140625 C106.71754966 620.10194192 109.04871599 619.00505895 112.41015625 617.12890625 C113.07015625 617.12890625 113.73015625 617.12890625 114.41015625 617.12890625 C114.71953125 616.34515625 115.02890625 615.56140625 115.34765625 614.75390625 C116.41015625 612.12890625 116.41015625 612.12890625 117.41015625 610.12890625 C117.53488397 607.67786159 117.59531956 605.26759277 117.59765625 602.81640625 C117.61892578 600.84220703 117.61892578 600.84220703 117.640625 598.828125 C117.36348097 594.37972851 117.07787382 591.74215126 113.7956543 588.56713867 C112.42691156 587.37803603 111.04481272 586.20419738 109.65234375 585.04296875 C105.08053486 581.14020506 100.97459438 576.73094799 96.765625 572.4453125 C92.70432407 568.33946348 88.55154112 564.43639078 84.17382812 560.66992188 C81.98044501 558.75344427 79.93782226 556.71896198 77.91015625 554.62890625 C75.28308133 551.96620997 72.64286614 549.41625875 69.78515625 547.00390625 C64.89150882 542.81777411 60.44311887 538.18666841 55.9152832 533.61450195 C52.12264312 529.79902897 48.27619506 526.13672736 44.1640625 522.6640625 C41.43929241 520.27913011 38.94570056 517.67280213 36.40625 515.09375 C33.86570988 512.5929835 31.17779526 510.29600787 28.47265625 507.9765625 C26.20694366 505.94686164 24.09561416 503.80714952 21.97265625 501.62890625 C11.96196824 491.58405207 2.05484039 484.70217509 -12.52734375 484.56640625 C-25.03609876 484.77395003 -37.19852875 488.29709318 -46.55078125 496.94140625 C-50.44114565 501.15455197 -53.26283701 505.80364861 -56.13671875 510.7421875 C-61.73024478 519.92940364 -70.05115183 526.02224848 -80.2421875 529.43359375 C-93.28217144 532.14201515 -107.13572201 530.97757414 -118.58984375 523.87890625 C-123.16733746 520.16319008 -125.06097714 516.02375508 -126.109375 510.28515625 C-127.27208169 494.36198664 -115.56386093 480.30060104 -106.58984375 468.12890625 C-105.89890625 467.19175781 -105.20796875 466.25460937 -104.49609375 465.2890625 C-91.9928393 449.07070171 -76.14121754 436.7043095 -57.58984375 428.12890625 C-56.92984375 428.12890625 -56.26984375 428.12890625 -55.58984375 428.12890625 C-55.58984375 427.46890625 -55.58984375 426.80890625 -55.58984375 426.12890625 C-71.77027351 420.96101234 -85.68831633 424.06470042 -101.71484375 428.69140625 C-102.83632813 429.00787109 -103.9578125 429.32433594 -105.11328125 429.65039062 C-110.47263993 431.0665392 -110.47263993 431.0665392 -115.58984375 433.12890625 C-121.31211451 434.08261804 -124.25169882 433.06259018 -129.08984375 429.87890625 C-131.27637956 428.316695 -133.43669986 426.73545144 -135.58984375 425.12890625 C-137.0204667 424.08413319 -138.45147591 423.03988891 -139.8828125 421.99609375 C-142.73469903 419.89755954 -145.58476211 417.7968786 -148.4140625 415.66796875 C-149.00276123 415.22662598 -149.59145996 414.7852832 -150.19799805 414.33056641 C-152.3828949 412.44421975 -152.59030715 411.12535352 -152.96484375 408.25390625 C-152.58984375 405.12890625 -152.58984375 405.12890625 -150.46484375 402.69140625 C-146.83632433 400.71938483 -145.52599061 401.05940729 -141.58984375 402.12890625 C-138.94921875 403.94921875 -138.94921875 403.94921875 -136.33984375 406.25390625 C-135.38722656 407.05828125 -134.43460937 407.86265625 -133.453125 408.69140625 C-132.50824219 409.49578125 -131.56335938 410.30015625 -130.58984375 411.12890625 C-124.11914881 416.83246708 -124.11914881 416.83246708 -115.96484375 418.37890625 C-110.04883475 417.28300505 -104.31920223 415.25607462 -98.6015625 413.40625 C-81.21230627 407.82171079 -65.22608727 406.74679894 -48.58984375 415.12890625 C-47.70296875 415.72703125 -46.81609375 416.32515625 -45.90234375 416.94140625 C-42.71323426 418.57905707 -41.05743336 417.92720026 -37.58984375 417.12890625 C-35.42073202 416.24660173 -33.27549131 415.30420753 -31.15234375 414.31640625 C-12.00939857 405.94705001 11.25138632 403.0706632 31.41015625 410.12890625 C39.17092508 413.27352947 46.07232056 417.73380441 53.05078125 422.30859375 C68.12320592 432.13558118 83.53280208 441.65607224 99.41015625 450.12890625 C100.39036743 450.65242676 100.39036743 450.65242676 101.39038086 451.18652344 C111.61088881 456.49531051 123.8388646 459.45109155 135.078125 456.00390625 C137.03062595 455.3258998 138.97521431 454.62798546 140.91992188 453.92797852 C148.05516829 451.42206099 153.83100775 450.79689614 160.84765625 453.81640625 C162.37429678 454.57567349 163.89480257 455.34735568 165.41015625 456.12890625 C171.32637801 458.93220793 177.03764851 461.57118214 183.41015625 463.12890625 C180.54429402 449.36679701 171.27102461 439.27412143 159.9375 431.4140625 C152.98712035 427.08522066 145.56697671 423.60538969 137.85522461 420.86621094 C132.86271059 418.99747506 128.18464456 416.59982878 123.453125 414.15625 C122.03946404 413.43242882 122.03946404 413.43242882 120.59724426 412.69398499 C117.59528801 411.1555004 114.5965019 409.6109436 111.59765625 408.06640625 C109.62714513 407.05626599 107.65644346 406.04649734 105.68554688 405.03710938 C94.2250006 399.16030639 82.81093217 393.19938469 71.4201355 387.18875122 C66.74385662 384.72298912 62.05770306 382.27954554 57.34765625 379.87890625 C56.34234863 379.35772217 55.33704102 378.83653809 54.30126953 378.29956055 C48.88883991 375.57185761 43.96207752 373.64877866 38.03637695 372.43505859 C31.28084215 370.95369091 27.56534878 368.93942813 23.68359375 363.0546875 C20.53667036 357.68095595 17.80152497 352.11851407 15.09570312 346.51269531 C12.46303817 341.22753652 9.43917649 336.19381155 6.41015625 331.12890625 C1.63871334 323.01904999 -3.01417724 314.85067733 -7.58984375 306.62890625 C-12.75201412 297.35444958 -18.03901326 288.16262733 -23.41015625 279.0078125 C-27.36879494 272.25067308 -31.25145083 265.45498652 -35.08984375 258.62890625 C-39.78651713 250.29771239 -44.50372828 241.9787964 -49.27734375 233.69140625 C-49.87804687 232.63566406 -50.47875 231.57992187 -51.09765625 230.4921875 C-51.65582031 229.52796875 -52.21398437 228.56375 -52.7890625 227.5703125 C-53.28237061 226.71123291 -53.77567871 225.85215332 -54.28393555 224.96704102 C-54.71488525 224.36045654 -55.14583496 223.75387207 -55.58984375 223.12890625 C-56.24984375 223.12890625 -56.90984375 223.12890625 -57.58984375 223.12890625 C-62.6506314 229.31098101 -66.30808384 236.78673122 -70.15234375 243.75390625 C-71.392867 245.98457645 -72.63376051 248.21504077 -73.875 250.4453125 C-74.49648926 251.56437988 -75.11797852 252.68344727 -75.75830078 253.83642578 C-78.51823881 258.79783931 -81.29913713 263.74724434 -84.08984375 268.69140625 C-84.88261719 270.09628296 -84.88261719 270.09628296 -85.69140625 271.52954102 C-89.61296223 278.45576375 -93.62232003 285.32787572 -97.65234375 292.19140625 C-103.72676542 302.54492425 -109.51118011 313.03610442 -115.21679688 323.59619141 C-121.27067066 334.76313427 -127.53504217 345.80976579 -133.85205078 356.8293457 C-139.57389563 366.82310289 -145.18738848 376.87707837 -150.80322266 386.93066406 C-153.75042912 392.20647777 -156.70077831 397.48053014 -159.65234375 402.75390625 C-160.52330688 404.31020752 -160.52330688 404.31020752 -161.41186523 405.89794922 C-165.26479859 412.77738029 -169.14065382 419.64350326 -173.02734375 426.50390625 C-179.64478593 438.19004901 -186.16327209 449.93033531 -192.67382812 461.67626953 C-194.58471226 465.11965937 -196.50052685 468.56025808 -198.41796875 472 C-206.05555084 485.70689831 -213.59147671 499.46392516 -221.04443359 513.27197266 C-223.54677247 517.8979394 -226.06829986 522.51338821 -228.58984375 527.12890625 C-232.74948034 534.74646326 -236.89456815 542.37174246 -241.02734375 550.00390625 C-241.56746094 551.00091553 -242.10757813 551.9979248 -242.6640625 553.02514648 C-245.39654488 558.07088664 -248.12409081 563.1192109 -250.84375 568.171875 C-256.20110832 578.11250935 -261.62392185 588.00496763 -267.21484375 597.81640625 C-271.31806394 605.01719132 -275.28339226 612.26694762 -279.08984375 619.62890625 C-283.42462572 628.01227813 -287.98284021 636.24644167 -292.67041016 644.4375 C-295.46547791 649.33115415 -298.20299514 654.24349005 -300.8359375 659.2265625 C-301.36195557 660.21664307 -301.88797363 661.20672363 -302.42993164 662.22680664 C-303.42027893 664.09928289 -304.40070413 665.97705675 -305.36889648 667.86108398 C-309.73310702 676.08453578 -315.08206553 682.1683888 -323.58984375 686.12890625 C-330.25175902 688.16658787 -336.78102872 688.43563665 -343.70239258 688.45117188 C-344.77683121 688.46110168 -345.85126984 688.47103149 -346.95826721 688.48126221 C-350.48782985 688.51030407 -354.01721287 688.52407392 -357.546875 688.53515625 C-358.75929052 688.540811 -359.97170605 688.54646576 -361.22086143 688.55229187 C-367.63431027 688.58219236 -374.04767005 688.60070493 -380.46118164 688.609375 C-387.06168784 688.6203452 -393.66136911 688.66842537 -400.26161671 688.72531891 C-405.36022786 688.76268745 -410.45864228 688.77298888 -415.55737877 688.77604675 C-417.98970751 688.78207267 -420.42203391 688.79803758 -422.85422707 688.82441711 C-438.27324937 688.97974657 -449.37519029 689.02799574 -461.15234375 678.06640625 C-468.24187632 670.3016801 -470.13605728 662.48993076 -469.890625 652.1171875 C-469.04692162 643.73493963 -464.24606376 636.35960622 -460.29125977 629.0715332 C-456.19604733 621.52290219 -452.41120003 613.81831476 -448.58984375 606.12890625 C-446.01040633 600.94646028 -443.42850881 595.76524136 -440.84521484 590.5847168 C-440.09449048 589.07824162 -439.34448477 587.57140808 -438.59521484 586.06420898 C-434.37260087 577.57198118 -430.08519806 569.12271312 -425.64453125 560.7421875 C-420.45918544 550.95317846 -415.51131347 541.05258855 -410.58984375 531.12890625 C-405.2121445 520.28527988 -399.76676264 509.49081455 -394.10144043 498.79418945 C-390.65955379 492.28878808 -387.34946169 485.72778651 -384.08984375 479.12890625 C-380.04616161 470.99492042 -375.94160703 462.90440515 -371.6796875 454.8828125 C-367.41181191 446.83481852 -363.25415126 438.73079049 -359.08984375 430.62890625 C-354.18766194 421.09445186 -349.2715742 411.5693379 -344.2590332 402.09228516 C-340.73011214 395.41426384 -337.25141425 388.71060242 -333.77734375 382.00390625 C-333.18445557 380.85937988 -332.59156738 379.71485352 -331.98071289 378.53564453 C-330.77860662 376.21486406 -329.57653965 373.89406323 -328.37451172 371.57324219 C-321.39465967 358.10241419 -314.39994265 344.63970587 -307.32275391 331.21972656 C-302.04459773 321.20715988 -296.82066779 311.16625428 -291.58984375 301.12890625 C-289.54860984 297.21201381 -287.50699325 293.29532141 -285.46484375 289.37890625 C-284.96049805 288.41146484 -284.45615234 287.44402344 -283.93652344 286.44726562 C-281.34134788 281.47275757 -278.73468469 276.5047183 -276.1105957 271.54541016 C-270.92350893 261.73714081 -265.84614268 251.87363757 -260.77734375 242.00390625 C-251.47195809 223.88488882 -242.12245273 205.79021532 -232.60302734 187.7824707 C-229.98439759 182.81540381 -227.4015728 177.83055569 -224.8359375 172.8359375 C-218.43554186 160.37917232 -212.01349007 147.95489589 -205.23876953 135.69604492 C-200.69370702 127.42281304 -196.39196868 119.03000185 -192.08984375 110.62890625 C-186.41156212 99.54440037 -180.62001339 88.54172756 -174.609375 77.6328125 C-171.39707155 71.79918364 -168.25420659 65.92880894 -165.11560059 60.05532837 C-164.15821813 58.26489215 -163.19904012 56.47543005 -162.23925781 54.6862793 C-159.16065272 48.94562571 -156.09639004 43.19807002 -153.0625 37.43359375 C-138.30897582 9.53818558 -120.79897705 -8.04370318 -90.51953125 -17.8671875 C-60.19962529 -26.69289829 -24.34156148 -20.3296401 0 0 Z " fill="#5F19B3" transform="translate(581.58984375,260.87109375)"/>
<path d="M0 0 C3.20168857 2.94004146 5.24063022 5.85654937 7.3203125 9.6640625 C7.93269775 10.77668457 8.54508301 11.88930664 9.17602539 13.03564453 C9.82576538 14.23205194 10.47542173 15.42850478 11.125 16.625 C11.80195401 17.85959577 12.47961302 19.09380521 13.15795898 20.32763672 C14.50193455 22.77396071 15.84262224 25.22203395 17.18017578 27.671875 C19.45568442 31.83336329 21.75504521 35.98116928 24.0625 40.125 C24.44704346 40.817146 24.83158691 41.50929199 25.2277832 42.22241211 C33.2396358 56.63916016 41.30785213 71.02437159 49.4375 85.375 C58.0808191 100.64161766 66.58894354 115.98372478 75.05078125 131.3515625 C75.38721146 131.96250259 75.72364166 132.57344269 76.07026672 133.20289612 C76.40664658 133.81374557 76.74302643 134.42459503 77.08959961 135.05395508 C77.42571259 135.66429596 77.76182556 136.27463684 78.10812378 136.9034729 C78.78553044 138.13356338 79.46287835 139.36368622 80.14016724 140.59384155 C85.14603156 149.68258987 90.22323746 158.72876009 95.34814453 167.75097656 C99.47694266 175.03498095 103.49313973 182.37610716 107.48364258 189.73657227 C111.06359719 196.32418181 114.73112069 202.85780193 118.4375 209.375 C123.45325261 218.19745745 128.32061645 227.09100633 133.12915039 236.02783203 C136.79262235 242.81879204 140.55303975 249.54714763 144.375 256.25 C150.24029258 266.54878732 155.85155076 276.97593486 161.42601013 287.43359375 C164.97932115 294.09951559 168.56450911 300.74670258 172.1875 307.375 C172.9148938 308.70591675 172.9148938 308.70591675 173.65698242 310.0637207 C175.10396397 312.70952585 176.55194249 315.35478361 178 318 C184.9777912 330.75631113 191.91555405 343.53295941 198.79516602 356.3425293 C201.49538223 361.36610981 204.20309329 366.38453958 206.95703125 371.37890625 C213.38619895 383.04275148 219.54636533 394.82586359 225.6159668 406.67941284 C229.90737495 415.05705237 234.24626151 423.39272433 238.8125 431.625 C244.44801268 441.79446623 249.71777745 452.14438781 255 462.5 C260.69667797 473.66512261 266.41568565 484.80054964 272.484375 495.76953125 C277.09900102 504.12226214 281.54737245 512.56022864 286 521 C294.41494464 536.93893105 302.91287125 552.82512106 311.8125 568.5 C315.07776049 574.2521241 318.07048487 580.09754265 320.98828125 586.03515625 C323.52834203 591.11394724 326.27311905 596.08235868 329 601.0625 C329.51900879 602.01205566 330.03801758 602.96161133 330.57275391 603.93994141 C332.79539693 607.9998754 335.02576549 612.05460985 337.29296875 616.08984375 C337.91816406 617.21519531 338.54335938 618.34054687 339.1875 619.5 C339.71730469 620.4384375 340.24710938 621.376875 340.79296875 622.34375 C342.12866459 625.28314538 342.62133307 627.80005635 343 631 C343.1134375 631.90878906 343.226875 632.81757812 343.34375 633.75390625 C343.83529048 642.58934639 341.12659975 648.86182016 336 656 C330.00768627 662.36297231 321.13409079 666.07885454 312.47439575 666.5146637 C310.4520067 666.54112664 308.42925986 666.54626306 306.40673828 666.53344727 C305.29313934 666.54206284 304.17954041 666.55067841 303.03219604 666.55955505 C299.37799339 666.58212041 295.7245636 666.57549244 292.0703125 666.56640625 C289.51260146 666.57164634 286.95489236 666.57792423 284.39718628 666.58518982 C279.04610066 666.59557702 273.69529141 666.59139009 268.34423828 666.57641602 C262.18761843 666.55950871 256.0317084 666.57532295 249.87516606 666.6076389 C243.91748202 666.63770847 237.96001583 666.63948767 232.00225449 666.6301403 C229.48343865 666.62932381 226.96460771 666.63612906 224.44583511 666.65091133 C220.91405801 666.66846166 217.38376988 666.65372498 213.85205078 666.63110352 C212.82621887 666.64279572 211.80038696 666.65448792 210.74346924 666.66653442 C200.1351202 666.52928923 189.61667634 662.55321244 182 655 C175.99530977 647.62885531 171.31997864 639.59005043 166.8125 631.25 C165.8344141 629.46112911 164.8536326 627.67375211 163.87283325 625.8863678 C163.21103921 624.67977068 162.55012763 623.47268913 161.8901062 622.26512146 C158.22039698 615.5548532 154.43939684 608.908783 150.65600586 602.26220703 C148.00282978 597.58789745 145.39202592 592.89681469 142.8515625 588.16015625 C142.34979492 587.22872803 141.84802734 586.2972998 141.33105469 585.33764648 C140.38333725 583.5720381 139.4434514 581.80219614 138.51269531 580.02758789 C138.09342773 579.24762451 137.67416016 578.46766113 137.2421875 577.6640625 C136.8797998 576.97779785 136.51741211 576.2915332 136.14404297 575.58447266 C135.00047826 573.67569833 135.00047826 573.67569833 132 573 C131.030625 573.474375 130.06125 573.94875 129.0625 574.4375 C123.95866598 576.8574213 118.51817952 576.24464835 113 576 C113.05220703 577.23363281 113.05220703 577.23363281 113.10546875 578.4921875 C113.34661732 588.43669529 112.4715805 597.0492011 106 605 C100.55655141 610.44344859 94.81203859 612.75406203 87.125 613.25 C84 613 84 613 81 612 C81.0825 613.27875 81.165 614.5575 81.25 615.875 C81.2253047 623.72810693 78.10200195 630.73372309 72.77734375 636.46484375 C66.61090638 641.79101932 60.30698328 644.15841647 52.25 644.0625 C51.26515625 644.05347656 50.2803125 644.04445313 49.265625 644.03515625 C48.14414062 644.01775391 48.14414062 644.01775391 47 644 C46.79375 645.134375 46.5875 646.26875 46.375 647.4375 C44.59402549 654.41298351 40.91152715 660.10246331 34.8125 664 C30.29310734 666.56722896 26.6918238 667.1366933 21.5 667.125 C20.3553125 667.12757813 19.210625 667.13015625 18.03125 667.1328125 C15 667 15 667 12 666 C11.95875 666.825 11.9175 667.65 11.875 668.5 C9.95702369 676.17190524 4.67163059 680.66757856 -1.75390625 684.87109375 C-7.87238668 687.94629522 -15.34255577 687.7893614 -22 687 C-28.74899676 684.62269381 -34.9300471 681.0699529 -40 676 C-40 675.34 -40 674.68 -40 674 C-40.99 674 -41.98 674 -43 674 C-43.22171875 674.55558594 -43.4434375 675.11117187 -43.671875 675.68359375 C-45.42171544 678.73552134 -47.64538847 680.70340513 -50.25 683.0625 C-51.18328125 683.91972656 -52.1165625 684.77695312 -53.078125 685.66015625 C-59.24298997 690.59699331 -64.04125306 691.61846233 -71.8046875 691.40625 C-77.4871938 690.68377976 -80.73856857 688.39999954 -84.59375 684.30859375 C-88.24004333 679.4569979 -88.55852101 674.87516222 -88.56640625 668.9296875 C-87.39819889 662.88723565 -82.98304195 658.74459714 -78.71875 654.55859375 C-78.22338745 654.06843277 -77.7280249 653.57827179 -77.21765137 653.07325745 C-75.6498485 651.52309931 -74.07547316 649.97985873 -72.5 648.4375 C-70.92542553 646.89070646 -69.35241192 645.34240368 -67.78234863 643.79103088 C-66.35886115 642.38524005 -64.93054301 640.98434562 -63.50195312 639.58374023 C-60.97467474 637.05968696 -60.97467474 637.05968696 -58.87304688 634.31274414 C-55.9661498 630.72345374 -52.55498754 628.45265527 -48.015625 627.6484375 C-41.97662134 627.3909606 -37.34442847 629.47339541 -32.3125 632.75 C-27.00842889 637.91071784 -25.71749063 641.67357864 -25.4375 649 C-25.58816536 655.45121682 -26.91276798 658.17916223 -31 663 C-30.85083702 665.69558808 -30.23159025 666.76015832 -28.35546875 668.703125 C-22.90367621 672.59305265 -18.535056 673.92762724 -11.81640625 673.6015625 C-7.43708646 672.66617381 -4.76181479 670.45003401 -2 667 C-0.32583302 663.65166605 -0.17216103 660.57910484 -1 657 C-3.2185698 653.66061108 -6.02290519 651.02151288 -8.91796875 648.265625 C-9.72736404 647.46517761 -10.53675934 646.66473022 -11.37068176 645.84002686 C-13.95810504 643.29067611 -16.57222079 640.77073365 -19.1875 638.25 C-20.929505 636.53956186 -22.6697606 634.82734008 -24.40820312 633.11328125 C-32.43910395 625.06933369 -32.43910395 625.06933369 -41.00146484 617.61669922 C-43 616 -43 616 -43.55859375 613.9296875 C-43.22222222 608.22222222 -43.22222222 608.22222222 -41 606 C-38.35888672 605.42553711 -38.35888672 605.42553711 -35 606 C-32.09263455 608.07437848 -29.71574802 610.61156568 -27.2578125 613.19140625 C-26.53061005 613.92947006 -25.80340759 614.66753387 -25.0541687 615.42796326 C-22.7299031 617.79240124 -20.42705901 620.1764541 -18.125 622.5625 C-15.82599076 624.91921384 -13.52273286 627.27167013 -11.21725464 629.62205505 C-9.78556195 631.08446825 -8.35828464 632.55122246 -6.93630981 634.02308655 C-2.48855424 638.60171429 2.14461225 642.85853132 7 647 C8.2927024 648.12380972 9.58451597 649.24864359 10.875 650.375 C14.55860681 653.57888127 16.87173163 654.29178974 21.90234375 654.21875 C26.083755 653.78269966 29.02596334 652.07479907 31.8125 649 C33.79365949 645.66331034 34.70029174 642.21531216 34.63049316 638.32409668 C33.16786273 632.93261153 28.21962792 629.26850827 24.296875 625.515625 C23.29580312 624.52949687 22.29649979 623.54157046 21.29888916 622.55194092 C18.67417596 619.95767832 16.02636387 617.38831434 13.37286377 614.82354736 C10.68350266 612.21591192 8.0165068 609.58562625 5.34765625 606.95703125 C0.64580052 602.33160308 -4.07508304 597.7265412 -8.81060791 593.13555908 C-9.5331073 592.43082458 -10.25560669 591.72609009 -11 591 C-11.75714294 590.31250671 -12.51428589 589.62501343 -13.29437256 588.91668701 C-15 587 -15 587 -14.875 583.875 C-14 581 -14 581 -12 579 C-8.35129183 578.50656584 -6.63092797 578.54468783 -3.60986328 580.72485352 C-2.85431152 581.51819092 -2.09875977 582.31152832 -1.3203125 583.12890625 C-0.47339844 583.99966797 0.37351562 584.87042969 1.24609375 585.76757812 C2.11363281 586.68990234 2.98117187 587.61222656 3.875 588.5625 C5.59917654 590.35776328 7.32570647 592.1507696 9.0546875 593.94140625 C9.89580078 594.81531006 10.73691406 595.68921387 11.60351562 596.58959961 C14.25604018 599.25752696 17.04000958 601.69158329 19.90087891 604.13012695 C24.89639168 608.58007256 29.49237302 613.47789908 34.16552734 618.26147461 C35.53819726 619.66435754 36.91745296 621.06078699 38.296875 622.45703125 C39.10479492 623.28178955 39.91271484 624.10654785 40.74511719 624.95629883 C45.53201938 629.29488244 49.69732692 629.54944719 56.01171875 629.44921875 C59.92315121 628.86122564 61.89335768 627.49818552 64.6953125 624.80078125 C68.22072815 619.93486325 68.99333879 614.48441999 68.87597656 608.59936523 C67.00478417 600.91068366 60.46842007 596.01928398 54.875 590.78125 C53.52660656 589.46985379 52.18143601 588.15513637 50.83935547 586.83728027 C47.31541836 583.39096344 43.75643093 579.98342734 40.1862793 576.58508301 C34.46425955 571.12791833 28.79382844 565.61748242 23.13092041 560.09910583 C21.14906807 558.17956139 19.15005091 556.27936898 17.14794922 554.38098145 C15.93410363 553.21085176 14.72070033 552.04026303 13.5078125 550.86914062 C12.94676819 550.34649628 12.38572388 549.82385193 11.80767822 549.28536987 C9.4456657 546.97909764 8.08525902 545.56630969 7.58544922 542.24645996 C8 540 8 540 9.125 538.1875 C12.08156793 536.31500698 13.53868945 536.34692254 17 537 C22.0126509 540.3621439 25.87536784 544.91705274 29.74609375 549.48828125 C34.68987835 554.99755941 40.05320391 560.1234085 45.31274414 565.32910156 C48.3580656 568.34489957 51.38610708 571.37709397 54.39453125 574.4296875 C58.83257299 578.91791711 63.31770116 583.24585663 68.125 587.3359375 C70.08487983 589.07533085 71.8784423 590.91766801 73.6875 592.8125 C77.42541751 596.57573072 80.10492748 597.82772068 85.4375 598.3125 C89.30739341 597.97303567 91.63855974 596.8761527 95 595 C95.66 595 96.32 595 97 595 C97.309375 594.21625 97.61875 593.4325 97.9375 592.625 C99 590 99 590 100 588 C100.12472772 585.54895534 100.18516331 583.13868652 100.1875 580.6875 C100.20167969 579.37136719 100.21585938 578.05523438 100.23046875 576.69921875 C99.95332472 572.25082226 99.66771757 569.61324501 96.38549805 566.43823242 C95.01675531 565.24912978 93.63465647 564.07529113 92.2421875 562.9140625 C87.67037861 559.01129881 83.56443813 554.60204174 79.35546875 550.31640625 C75.29416782 546.21055723 71.14138487 542.30748453 66.76367188 538.54101562 C64.57028876 536.62453802 62.52766601 534.59005573 60.5 532.5 C57.87292508 529.83730372 55.23270989 527.2873525 52.375 524.875 C47.48135257 520.68886786 43.03296262 516.05776216 38.50512695 511.4855957 C34.71248687 507.67012272 30.86603881 504.00782111 26.75390625 500.53515625 C24.02913616 498.15022386 21.53554431 495.54389588 18.99609375 492.96484375 C16.45555363 490.46407725 13.76763901 488.16710162 11.0625 485.84765625 C8.79678741 483.81795539 6.68545791 481.67824327 4.5625 479.5 C-5.44818801 469.45514582 -15.35531586 462.57326884 -29.9375 462.4375 C-42.44625501 462.64504378 -54.608685 466.16818693 -63.9609375 474.8125 C-67.8513019 479.02564572 -70.67299326 483.67474236 -73.546875 488.61328125 C-79.14040103 497.80049739 -87.46130808 503.89334223 -97.65234375 507.3046875 C-110.69232769 510.0131089 -124.54587826 508.84866789 -136 501.75 C-140.57749371 498.03428383 -142.47113339 493.89484883 -143.51953125 488.15625 C-144.68223794 472.23308039 -132.97401718 458.17169479 -124 446 C-123.3090625 445.06285156 -122.618125 444.12570312 -121.90625 443.16015625 C-109.40299555 426.94179546 -93.55137379 414.57540325 -75 406 C-74.34 406 -73.68 406 -73 406 C-73 405.34 -73 404.68 -73 404 C-89.18042976 398.83210609 -103.09847258 401.93579417 -119.125 406.5625 C-120.80722656 407.03719727 -120.80722656 407.03719727 -122.5234375 407.52148438 C-127.88279618 408.93763295 -127.88279618 408.93763295 -133 411 C-138.72227076 411.95371179 -141.66185507 410.93368393 -146.5 407.75 C-148.68653581 406.18778875 -150.84685611 404.60654519 -153 403 C-154.43062295 401.95522694 -155.86163216 400.91098266 -157.29296875 399.8671875 C-160.14485528 397.76865329 -162.99491836 395.66797235 -165.82421875 393.5390625 C-166.41291748 393.09771973 -167.00161621 392.65637695 -167.6081543 392.20166016 C-169.79305115 390.3153135 -170.0004634 388.99644727 -170.375 386.125 C-170 383 -170 383 -167.875 380.5625 C-164.24648058 378.59047858 -162.93614686 378.93050104 -159 380 C-156.359375 381.8203125 -156.359375 381.8203125 -153.75 384.125 C-152.79738281 384.929375 -151.84476562 385.73375 -150.86328125 386.5625 C-149.91839844 387.366875 -148.97351563 388.17125 -148 389 C-141.52930506 394.70356083 -141.52930506 394.70356083 -133.375 396.25 C-127.458991 395.1540988 -121.72935848 393.12716837 -116.01171875 391.27734375 C-98.62246252 385.69280454 -82.63624352 384.61789269 -66 393 C-65.113125 393.598125 -64.22625 394.19625 -63.3125 394.8125 C-60.12339051 396.45015082 -58.46758961 395.79829401 -55 395 C-52.83088827 394.11769548 -50.68564756 393.17530128 -48.5625 392.1875 C-29.41955482 383.81814376 -6.15876993 380.94175695 14 388 C21.76076883 391.14462322 28.66216431 395.60489816 35.640625 400.1796875 C50.71304967 410.00667493 66.12264583 419.52716599 82 428 C82.98021118 428.52352051 82.98021118 428.52352051 83.98022461 429.05761719 C94.20073256 434.36640426 106.42870835 437.3221853 117.66796875 433.875 C119.6204697 433.19699355 121.56505806 432.49907921 123.50976562 431.79907227 C130.64501204 429.29315474 136.4208515 428.66798989 143.4375 431.6875 C144.96414053 432.44676724 146.48464632 433.21844943 148 434 C153.91622176 436.80330168 159.62749226 439.44227589 166 441 C163.13413777 427.23789076 153.86086836 417.14521518 142.52734375 409.28515625 C135.5769641 404.95631441 128.15682046 401.47648344 120.44506836 398.73730469 C115.45255434 396.86856881 110.77448831 394.47092253 106.04296875 392.02734375 C104.62930779 391.30352257 104.62930779 391.30352257 103.18708801 390.56507874 C100.18513176 389.02659415 97.18634565 387.48203735 94.1875 385.9375 C92.21698888 384.92735974 90.24628721 383.91759109 88.27539062 382.90820312 C76.81484435 377.03140014 65.40077592 371.07047844 54.00997925 365.05984497 C49.33370037 362.59408287 44.64754681 360.15063929 39.9375 357.75 C38.42953857 356.96822388 38.42953857 356.96822388 36.89111328 356.1706543 C31.47868366 353.44295136 26.55192127 351.51987241 20.6262207 350.30615234 C13.8706859 348.82478466 10.15519253 346.81052188 6.2734375 340.92578125 C3.12651411 335.5520497 0.39136872 329.98960782 -2.31445312 324.38378906 C-4.94711808 319.09863027 -7.97097976 314.0649053 -11 309 C-15.77144291 300.89014374 -20.42433349 292.72177108 -25 284.5 C-30.16217037 275.22554333 -35.44916951 266.03372108 -40.8203125 256.87890625 C-45.32278787 249.1934729 -49.72020802 241.45326358 -54.0793457 233.68579102 C-56.96930167 228.54961755 -59.90141342 223.44243271 -62.890625 218.36328125 C-63.53451172 217.26886719 -64.17839844 216.17445313 -64.84179688 215.046875 C-66.08861122 212.93354383 -67.33973327 210.82274659 -68.59570312 208.71484375 C-69.4377832 207.28785156 -69.4377832 207.28785156 -70.296875 205.83203125 C-70.79541992 204.99389893 -71.29396484 204.1557666 -71.80761719 203.29223633 C-72.93280666 201.12917245 -73.66573246 199.40966833 -74 197 C-73.10789358 194.69539174 -72.15830585 192.6678951 -71 190.5 C-70.64679688 189.81695801 -70.29359375 189.13391602 -69.9296875 188.43017578 C-68.6358055 185.94470129 -67.31955881 183.47193773 -66 181 C-65.47277344 180.00838867 -64.94554687 179.01677734 -64.40234375 177.99511719 C-61.3069843 172.17986045 -58.19429642 166.37412533 -55.0703125 160.57421875 C-52.33888735 155.5028752 -49.62620192 150.42202091 -46.9296875 145.33203125 C-40.86929696 133.89897472 -34.78217475 122.49422345 -28.375 111.25 C0.99946507 61.16696739 0.99946507 61.16696739 1.4230957 4.82617188 C0.96354891 3.21315238 0.48412183 1.60581481 0 0 Z " fill="#411086" transform="translate(599,283)"/>
<path d="M0 0 C0.86059525 -0.00852997 1.72119049 -0.01705994 2.60786438 -0.02584839 C4.01212929 -0.02448883 4.01212929 -0.02448883 5.44476318 -0.02310181 C6.93329048 -0.03317764 6.93329048 -0.03317764 8.45188904 -0.04345703 C11.73569739 -0.06246926 15.01930163 -0.06636314 18.30316162 -0.06851196 C20.58756596 -0.0749386 22.87196947 -0.08166686 25.15637207 -0.08868408 C29.9479971 -0.1006656 34.73955 -0.1043641 39.53118896 -0.10317993 C45.66236314 -0.10297692 51.7930729 -0.13025764 57.92413712 -0.16472435 C62.64428824 -0.18699717 67.36432777 -0.19101731 72.08452606 -0.18996048 C74.34429268 -0.19231668 76.60406236 -0.2011412 78.86377716 -0.21662521 C82.03042271 -0.23628833 85.19606924 -0.23044484 88.36273193 -0.21841431 C89.29081161 -0.22965332 90.2188913 -0.24089233 91.1750946 -0.25247192 C98.11481661 -0.18569951 103.72605923 1.31423196 108.72113037 6.33773804 C109.17616943 7.01578491 109.6312085 7.69383179 110.10003662 8.39242554 C110.57312256 9.07562866 111.0462085 9.75883179 111.53363037 10.46273804 C113.42219956 13.48183481 113.78818239 15.23848024 113.79133779 18.78344071 C113.79460998 19.74197477 113.79788218 20.70050883 113.80125353 21.68808937 C113.7997699 22.75064697 113.79828628 23.81320457 113.7967577 24.90796089 C113.79910993 26.03401706 113.80146216 27.16007322 113.80388567 28.3202523 C113.81060613 32.13884464 113.81011653 35.9574032 113.80970764 39.77600098 C113.81245476 42.52326891 113.81669153 45.2705341 113.82084912 48.01780021 C113.8301933 54.80552393 113.83410022 61.59324113 113.83636809 68.38097047 C113.83932545 76.50706306 113.84802011 84.63314694 113.85678237 92.75923497 C113.87764711 112.40330223 113.88809981 132.04737101 113.89691197 151.69144677 C113.90111565 160.98076159 113.90633802 170.27007576 113.9115965 179.55939004 C113.92948858 211.34465639 113.94448548 243.12992292 113.95191669 274.91519356 C113.95239146 276.91147029 113.95286734 278.90774703 113.95334436 280.90402376 C113.95358073 281.89401942 113.95381711 282.88401508 113.95406065 283.9040106 C113.95526187 288.92000569 113.95647731 293.93600077 113.95770264 298.95199585 C113.95794279 299.94744408 113.95818294 300.94289231 113.95843036 301.96850564 C113.96632489 334.24994579 113.98975894 366.53134921 114.02225858 398.81277331 C114.05653938 432.92554259 114.07626623 467.03829036 114.07956094 501.15107715 C114.07997849 504.8943468 114.08045805 508.63761644 114.08098412 512.38088608 C114.08110731 513.30261506 114.0812305 514.22434405 114.08135742 515.17400422 C114.08369167 530.0217687 114.0993642 544.86949062 114.11982596 559.71723992 C114.1400598 574.63607052 114.14557285 589.55484988 114.13605533 604.47369166 C114.13083079 613.34145026 114.13676267 622.20903852 114.15859 631.07677268 C114.17206535 636.99790715 114.1710501 642.91892393 114.15818804 648.84005948 C114.15126936 652.21551564 114.15289508 655.59037899 114.16774813 658.96584941 C114.18275946 662.60147634 114.17326787 666.23623859 114.15752125 669.87184334 C114.16774345 670.92035394 114.17796566 671.96886455 114.18849763 673.0491482 C114.12101932 680.1547215 113.04668818 685.87298781 107.81512451 691.12045288 C100.77981664 695.0325013 94.01409159 695.01276089 86.10003662 694.89242554 C84.82450928 694.91176147 83.54898193 694.93109741 82.23480225 694.95101929 C74.89332759 694.91292134 69.13827309 694.4983952 63.66253662 689.26742554 C60.64105742 685.7937421 58.38910108 682.20990714 56.20941162 678.16195679 C55.59066162 677.01404663 54.97191162 675.86613647 54.33441162 674.68344116 C54.01923584 674.09216431 53.70406006 673.50088745 53.3793335 672.89169312 C52.40779414 671.07103818 51.42637733 669.25596365 50.44378662 667.44125366 C45.66253662 658.52663313 45.66253662 658.52663313 45.66253662 656.26742554 C45.00253662 656.26742554 44.34253662 656.26742554 43.66253662 656.26742554 C42.97031006 654.86557007 42.97031006 654.86557007 42.26409912 653.43539429 C35.88518688 640.56781792 29.27795836 627.82555518 22.35784912 615.24008179 C21.5297876 613.73308716 21.5297876 613.73308716 20.68499756 612.19564819 C19.60121912 610.22820809 18.51343528 608.26296817 17.42132568 606.30014038 C16.93115967 605.41149292 16.44099365 604.52284546 15.93597412 603.60726929 C15.49688721 602.81699341 15.05780029 602.02671753 14.60540771 601.2124939 C13.66253662 599.26742554 13.66253662 599.26742554 13.66253662 597.26742554 C13.00253662 597.26742554 12.34253662 597.26742554 11.66253662 597.26742554 C10.95290771 595.83076538 10.95290771 595.83076538 10.22894287 594.36508179 C2.9610596 579.70632031 -4.74059689 565.29976739 -12.59625244 550.94857788 C-15.36598553 545.88831948 -18.12079658 540.82067167 -20.85308838 535.74008179 C-21.72562256 534.11985107 -21.72562256 534.11985107 -22.61578369 532.46688843 C-23.73730674 530.38271947 -24.85656318 528.29732873 -25.97320557 526.21054077 C-26.48528564 525.25993774 -26.99736572 524.30933472 -27.52496338 523.32992554 C-27.97226807 522.4959021 -28.41957275 521.66187866 -28.88043213 520.80258179 C-30.27164243 518.18330633 -30.27164243 518.18330633 -32.3984642 515.94656944 C-35.73736652 510.90335965 -34.87127485 504.67527751 -34.81848145 498.8659668 C-34.82022647 497.48310193 -34.82373012 496.10023836 -34.82883811 494.71738183 C-34.8377756 490.92264237 -34.82179169 487.1283551 -34.80172586 483.33367324 C-34.78444742 479.23967119 -34.79029784 475.14569451 -34.79333496 471.05166626 C-34.79543208 463.96025173 -34.78288513 456.86898445 -34.76038361 449.77760696 C-34.72787146 439.52469853 -34.71745739 429.27186127 -34.71243164 419.01890688 C-34.70367776 402.38409539 -34.67705963 385.74936238 -34.63922119 369.11459351 C-34.60250353 352.95574333 -34.57419056 336.79691448 -34.55718994 320.63803101 C-34.55613905 319.64195082 -34.55508815 318.64587064 -34.55400541 317.61960621 C-34.54878525 312.62255035 -34.54373042 307.62549434 -34.5387578 302.62843823 C-34.49729286 261.17471275 -34.42684187 219.72107363 -34.33746338 178.26742554 C-36.08118086 179.36873695 -37.82380641 180.47177735 -39.565979 181.57553101 C-40.53652222 182.18959808 -41.50706543 182.80366516 -42.50701904 183.43634033 C-46.39088192 185.94890833 -50.11636147 188.64716583 -53.83746338 191.39242554 C-60.19437856 196.03872308 -66.62752108 200.54430046 -73.14996338 204.95492554 C-78.50685835 208.58319998 -83.74670185 212.27353278 -88.83746338 216.26742554 C-94.69674539 220.86425135 -100.78578982 225.04902416 -106.95172119 229.22250366 C-114.19946076 234.13926826 -121.30357889 239.23910995 -128.38433838 244.39242554 C-129.04651367 244.87364868 -129.70868896 245.35487183 -130.39093018 245.85067749 C-131.69415803 246.79920768 -132.99509012 247.75089978 -134.29376221 248.70565796 C-141.86729111 254.22154086 -149.12468514 255.22427867 -158.33746338 254.26742554 C-164.16439481 252.73043861 -167.5157585 249.42826085 -171.01324463 244.65805054 C-174.86327748 237.70754875 -175.77514188 231.92306627 -175.70977783 224.10702515 C-175.7134285 223.12223679 -175.71707916 222.13744843 -175.72084045 221.12281799 C-175.72890425 217.88828951 -175.71537126 214.65426855 -175.70074463 211.41976929 C-175.70022556 209.16110738 -175.70074506 206.90244503 -175.70225525 204.64378357 C-175.70216571 199.91889671 -175.69177368 195.19418114 -175.67364502 190.46932983 C-175.65094574 184.42124477 -175.65041823 178.37340949 -175.65716267 172.32529354 C-175.66050812 167.6643808 -175.65386187 163.00352473 -175.64403343 158.34262276 C-175.64019208 156.11275085 -175.63902879 153.88287262 -175.64061928 151.65299797 C-175.64099122 148.53468745 -175.62833383 145.41669414 -175.61212158 142.2984314 C-175.614599 141.38239136 -175.61707642 140.46635132 -175.61962891 139.52255249 C-175.55075478 131.19808387 -174.08096701 124.54677154 -168.33746338 118.26742554 C-165.76196365 116.04185018 -163.02193429 114.12257827 -160.21246338 112.20492554 C-158.59450376 111.06930605 -156.97734193 109.93254925 -155.36090088 108.79476929 C-154.53042236 108.21453003 -153.69994385 107.63429077 -152.84429932 107.03646851 C-148.79405114 104.1782587 -144.81807992 101.22143606 -140.83746338 98.26742554 C-133.96155954 93.18386216 -127.04711236 88.15738304 -120.10699463 83.16195679 C-114.656625 79.23350538 -109.24072321 75.26037285 -103.83746338 71.26742554 C-96.96125533 66.18598631 -90.04941058 61.1577353 -83.10919189 56.16415405 C-77.63368467 52.21875255 -72.19934628 48.22023485 -66.77496338 44.20492554 C-60.13826341 39.29642737 -53.4447072 34.48139258 -46.68756104 29.74032593 C-41.4778459 26.08258311 -36.3062521 22.37506485 -31.14996338 18.64242554 C-30.40335449 18.10246948 -29.65674561 17.56251343 -28.88751221 17.00619507 C-26.00775676 14.92337096 -23.12820269 12.84027223 -20.25006104 10.75521851 C-18.32292171 9.36057207 -16.3930746 7.96976009 -14.46246338 6.57992554 C-13.61518677 5.96480103 -13.61518677 5.96480103 -12.75079346 5.33724976 C-8.50280657 2.28651159 -5.31448778 0.02389402 0 0 Z " fill="#F82A3A" transform="translate(932.3374633789063,254.73257446289063)"/>
<path d="M0 0 C3.55859375 1.0546875 3.55859375 1.0546875 5.67578125 4.08203125 C6.28223417 5.37599846 6.86717654 6.68020128 7.43359375 7.9921875 C15.02012005 23.69293382 28.62418849 33.16314643 42.55859375 43.0546875 C46.21554788 41.39025324 48.75835569 39.20340032 51.6796875 36.4921875 C57.08238067 32.3587341 63.03312279 32.3306535 69.55859375 33.0546875 C75.68251041 34.805876 80.16934878 38.7069515 83.55859375 44.0546875 C84.62247656 47.16251486 84.75360935 50.15811583 84.80859375 53.4296875 C84.834375 54.34492187 84.86015625 55.26015625 84.88671875 56.203125 C84.02462451 63.69513448 78.81296904 68.32800096 73.80859375 73.4921875 C73.11765625 74.21728516 72.42671875 74.94238281 71.71484375 75.68945312 C67.90208673 79.67779764 64.03346159 83.60238709 60.09277344 87.46435547 C58.46941535 89.14712991 57.01459645 90.91377822 55.55859375 92.7421875 C51.59353323 97.32678873 48.30704575 99.67796285 42.28125 100.50390625 C35.38768935 100.83497373 30.34697591 100.5839662 25.109375 95.83984375 C20.2444168 90.23962738 18.12846073 84.61777868 18.29296875 77.1875 C19.33815322 68.79528354 25.98184066 62.86976337 31.55859375 57.0546875 C30.08440951 53.42531001 28.16061941 51.70843155 25.05859375 49.3671875 C20.44314144 45.79221288 16.10476852 42.01228215 11.80078125 38.0703125 C10.07196566 36.5161856 8.26660533 35.04693654 6.43359375 33.6171875 C-0.61901859 27.33116346 -8.28656959 18.70757503 -9.00390625 8.8671875 C-8.44140625 5.0546875 -8.44140625 5.0546875 -6.37890625 1.9921875 C-3.44140625 0.0546875 -3.44140625 0.0546875 0 0 Z " fill="#401083" transform="translate(387.44140625,789.9453125)"/>
<path d="M0 0 C4.96024682 2.75569268 8.69443716 5.64693202 10.875 11 C11.85109362 17.70961832 11.95645927 24.33862101 7.875 30 C4.96652001 33.59071604 1.90611647 36.96967107 -1.36254883 40.23583984 C-3.79327746 42.66807224 -6.20179149 45.11912337 -8.6028595 47.58045959 C-10.92715589 49.95879779 -13.26257865 52.32609033 -15.59838867 54.69311523 C-16.82272144 55.93760163 -18.04344527 57.18564902 -19.26049805 58.43725586 C-21.03518313 60.26083166 -22.82280913 62.07084443 -24.61328125 63.87890625 C-25.14689774 64.43316788 -25.68051422 64.9874295 -26.2303009 65.55848694 C-31.30043487 70.63154522 -37.24366808 74.55830122 -44.625 74.625 C-50.60063899 74.37670475 -54.06737319 72.28713059 -58.125 68 C-62.63997138 62.94543448 -63.68144491 58.51257344 -63.69140625 51.80859375 C-62.40137607 45.41182339 -58.35951331 40.83298721 -54 36.1875 C-53.52208008 35.67541992 -53.04416016 35.16333984 -52.55175781 34.63574219 C-48.59599977 30.42443749 -44.5016523 26.35619126 -40.390625 22.296875 C-38.37879145 20.25729203 -36.48713882 18.17539582 -34.625 16 C-15.05913473 -6.65036638 -15.05913473 -6.65036638 0 0 Z " fill="#3C0F7D" transform="translate(501.125,849)"/>
<path d="M0 0 C5.29582584 3.22316432 9.48595193 7.00302264 11.60546875 12.93359375 C12.53793413 18.71154887 12.44062863 24.18184024 9.06640625 29.1953125 C6.60055261 32.12928274 3.89956309 34.79717056 1.1171875 37.4296875 C-0.87570676 39.41638302 -2.70047718 41.41337703 -4.53125 43.54296875 C-9.10610667 48.82003851 -13.98368737 53.78315463 -18.89453125 58.74609375 C-19.80589844 59.68646484 -20.71726562 60.62683594 -21.65625 61.59570312 C-28.27981534 68.28139425 -33.04711165 72.27300712 -42.76953125 72.62109375 C-47.8854946 72.50910838 -50.62159908 71.63966977 -54.51953125 68.30859375 C-59.84897501 62.7151225 -61.68567143 58.33230411 -61.98828125 50.69140625 C-60.39811096 43.30548371 -54.81969286 37.96932214 -49.51953125 32.93359375 C-45.19889704 28.77438983 -41.11663207 24.53224386 -37.19824219 19.99072266 C-34.0674162 16.42002155 -30.77887122 13.0134067 -27.45703125 9.62109375 C-26.79251953 8.91919922 -26.12800781 8.21730469 -25.44335938 7.49414062 C-18.6975289 0.63053619 -9.56760131 -4.26093827 0 0 Z " fill="#390F7A" transform="translate(534.39453125,878.06640625)"/>
<path d="M0 0 C1 3 1 3 0.20239258 5.1027832 C-0.22920166 5.91062256 -0.6607959 6.71846191 -1.10546875 7.55078125 C-1.58814209 8.46529053 -2.07081543 9.3797998 -2.56811523 10.32202148 C-3.10251221 11.30887939 -3.63690918 12.2957373 -4.1875 13.3125 C-4.73414307 14.33996338 -5.28078613 15.36742676 -5.84399414 16.42602539 C-7.5505337 19.62404383 -9.27255564 22.81323122 -11 26 C-11.50853516 26.94004883 -12.01707031 27.88009766 -12.54101562 28.84863281 C-14.9934396 33.37506037 -17.46019927 37.89339376 -19.9375 42.40625 C-22.03622271 46.23142841 -24.11835538 50.06499125 -26.1875 53.90625 C-32.13238992 64.94151349 -38.17238175 75.91023138 -44.38183594 86.79907227 C-48.17222802 93.46716073 -51.81359484 100.1994619 -55.28613281 107.03881836 C-57.78889741 111.89444871 -57.78889741 111.89444871 -60 113 C-59.39254603 108.14036821 -57.27241033 104.2594482 -55 100 C-54.34 100 -53.68 100 -53 100 C-52.9175 99.13375 -52.835 98.2675 -52.75 97.375 C-51.87379283 93.43206774 -50.29671521 91.31747753 -48 88 C-46.25750813 84.70312617 -44.6196154 81.35871062 -43 78 C-42.34 78 -41.68 78 -41 78 C-41 76.68 -41 75.36 -41 74 C-40.34 74 -39.68 74 -39 74 C-38.87496094 73.42636719 -38.74992187 72.85273437 -38.62109375 72.26171875 C-37.98400072 69.94173846 -37.13248654 67.96458614 -36.0625 65.8125 C-35.72347656 65.11769531 -35.38445312 64.42289063 -35.03515625 63.70703125 C-34 62 -34 62 -32 61 C-31.30763965 59.00874874 -30.645124 57.00705243 -30 55 C-29.08797995 53.14319271 -28.12499896 51.31094339 -27.125 49.5 C-26.50367188 48.36691406 -25.88234375 47.23382812 -25.2421875 46.06640625 C-24.88995117 45.42848145 -24.53771484 44.79055664 -24.17480469 44.13330078 C-22.86125634 41.74805858 -21.55884523 39.35693523 -20.2578125 36.96484375 C-13.54338232 24.62223882 -6.78139023 12.30591969 0 0 Z " fill="#47168F" transform="translate(357,775)"/>
<path d="M0 0 C0.99 0.33 1.98 0.66 3 1 C0.90001123 10.33328344 -7.87433014 17.01489163 -14.4375 23.5 C-15.53481445 24.59054687 -15.53481445 24.59054687 -16.65429688 25.703125 C-18.43389824 27.47109499 -20.21580918 29.23666378 -22 31 C-22.66 30.67 -23.32 30.34 -24 30 C-23 28 -23 28 -22 26 C-21.70174316 25.36070557 -21.40348633 24.72141113 -21.09619141 24.06274414 C-20.01154694 22.0217283 -18.85785112 20.47826139 -17.3359375 18.74609375 C-16.80581055 18.14265137 -16.27568359 17.53920898 -15.72949219 16.91748047 C-12.73342383 13.5957525 -9.68897466 10.32157117 -6.625 7.0625 C-5.66400391 6.03672852 -5.66400391 6.03672852 -4.68359375 4.99023438 C-3.12370973 3.32558203 -1.56249827 1.6621981 0 0 Z " fill="#E9E3EF" transform="translate(539,911)"/>
<path d="M0 0 C0.99 0.33 1.98 0.66 3 1 C-13.414469 20.36065574 -13.414469 20.36065574 -21 27 C-21.66 27 -22.32 27 -23 27 C-24.06174739 23.81475784 -24.14158292 23.02908236 -23 20 C-21.55712891 18.21655273 -21.55712891 18.21655273 -19.7265625 16.43359375 C-19.0665625 15.78326172 -18.4065625 15.13292969 -17.7265625 14.46289062 C-17.03304688 13.79451172 -16.33953125 13.12613281 -15.625 12.4375 C-14.93921875 11.76525391 -14.2534375 11.09300781 -13.546875 10.40039062 C-12.26851913 9.14814903 -10.98710423 7.89901711 -9.70166016 6.65405273 C-8.58526266 5.56888874 -7.50427926 4.44580599 -6.46630859 3.28540039 C-5 2 -5 2 -2 2 C-1.34 1.34 -0.68 0.68 0 0 Z " fill="#ECE6F3" transform="translate(469,858)"/>
<path d="M0 0 C-0.76957031 0.20302734 -0.76957031 0.20302734 -1.5546875 0.41015625 C-7.5296636 2.0899896 -13.32904188 4.16710108 -19.125 6.375 C-19.8763623 6.65480713 -20.62772461 6.93461426 -21.40185547 7.22290039 C-25.9977795 9.00081585 -30.03150842 11.13132301 -34.15161133 13.83129883 C-36 15 -36 15 -39.19140625 16.55078125 C-46.58808301 20.36742531 -52.43945535 27.1717322 -57.625 33.56640625 C-58.07875 34.03949219 -58.5325 34.51257813 -59 35 C-59.66 35 -60.32 35 -61 35 C-54.43333788 20.73013808 -37.72858551 10.67910829 -23.58398438 5.03613281 C-5.20472837 -1.6729484 -5.20472837 -1.6729484 0 0 Z " fill="#872FE3" transform="translate(503,242)"/>
<path d="M0 0 C0.66 0 1.32 0 2 0 C0.65845574 4.38207698 -1.05974254 8.25627595 -3.23046875 12.2890625 C-3.54397781 12.87360199 -3.85748688 13.45814148 -4.18049622 14.06039429 C-4.84311311 15.29358171 -5.50800359 16.52554993 -6.17504883 17.75634766 C-7.17206739 19.59651646 -8.16184241 21.440426 -9.15039062 23.28515625 C-12.29008685 29.12649712 -15.48899273 34.9339522 -18.7734375 40.6953125 C-19.58240479 42.11481201 -19.58240479 42.11481201 -20.40771484 43.56298828 C-22.54474432 46.83373778 -24.7906915 48.80827712 -28 51 C-28 50.01 -28 49.02 -28 48 C-27.278125 47.34 -26.55625 46.68 -25.8125 46 C-22.41900793 42.84684023 -20.97378615 38.93065684 -19.2109375 34.71875 C-17.99572889 31.99041067 -16.57497691 29.5343968 -15 27 C-14.484375 26.071875 -13.96875 25.14375 -13.4375 24.1875 C-12.963125 23.465625 -12.48875 22.74375 -12 22 C-11.34 22 -10.68 22 -10 22 C-9.9071875 20.7934375 -9.9071875 20.7934375 -9.8125 19.5625 C-8.73463007 14.8364549 -6.48408581 11.12486573 -4 7 C-3.34 7 -2.68 7 -2 7 C-1.34 4.69 -0.68 2.38 0 0 Z " fill="#3E1186" transform="translate(294,890)"/>
<path d="M0 0 C0.99 0.33 1.98 0.66 3 1 C-1.40974617 6.2916954 -6.08405044 11.17838636 -11 16 C-12.00112423 16.99887451 -13.00154679 17.9984556 -14 19 C-14.33 17.68 -14.66 16.36 -15 15 C-16.98 15.99 -16.98 15.99 -19 17 C-17.00801633 14.65941919 -15.00710876 12.3275715 -13 10 C-12.30390625 9.1853125 -11.6078125 8.370625 -10.890625 7.53125 C-10.18421875 6.7165625 -9.4778125 5.901875 -8.75 5.0625 C-8.08484375 4.29035156 -7.4196875 3.51820313 -6.734375 2.72265625 C-5 1 -5 1 -3 1 C-2.67 1.33 -2.34 1.66 -2 2 C-1.34 2 -0.68 2 0 2 C0 1.34 0 0.68 0 0 Z " fill="#F1ECF6" transform="translate(505,886)"/>
<path d="M0 0 C1 3 1 3 0.20239258 5.1027832 C-0.22920166 5.91062256 -0.6607959 6.71846191 -1.10546875 7.55078125 C-1.58902832 8.46706299 -2.07258789 9.38334473 -2.57080078 10.32739258 C-3.10431152 11.31247803 -3.63782227 12.29756348 -4.1875 13.3125 C-4.72616699 14.32401123 -5.26483398 15.33552246 -5.81982422 16.37768555 C-7.53581896 19.59100883 -9.26710641 22.79576345 -11 26 C-12.13428352 28.11449272 -13.26840149 30.22907426 -14.40234375 32.34375 C-15.47541766 34.33395103 -16.54959577 36.32355719 -17.625 38.3125 C-18.38719849 39.72559448 -18.38719849 39.72559448 -19.16479492 41.16723633 C-19.63892822 42.03630615 -20.11306152 42.90537598 -20.6015625 43.80078125 C-21.01744629 44.56559814 -21.43333008 45.33041504 -21.86181641 46.1184082 C-23 48 -23 48 -25 50 C-24.67554797 44.80876758 -23.45069666 42.00831583 -20.59350586 37.59130859 C-18.63538227 34.40707024 -16.86924564 31.1322095 -15.1171875 27.83203125 C-14.77360703 27.18507294 -14.43002655 26.53811462 -14.07603455 25.87155151 C-13.00684848 23.85300902 -11.94066065 21.8329056 -10.875 19.8125 C-9.79927786 17.77722599 -8.72268489 15.74242302 -7.64456177 13.7084198 C-6.97854992 12.4515042 -6.31397018 11.1938283 -5.65109253 9.93525696 C-3.86463324 6.55928511 -1.99705706 3.25583833 0 0 Z " fill="#4D1A96" transform="translate(357,775)"/>
<path d="M0 0 C0.66 0.33 1.32 0.66 2 1 C0.9375 2.0625 -0.125 3.125 -1.1875 4.1875 C-1.826875 4.82945312 -2.46625 5.47140625 -3.125 6.1328125 C-4.62698725 7.62854147 -6.15338623 9.09974036 -7.6875 10.5625 C-10.10296833 12.97001235 -10.10296833 12.97001235 -12 16 C-14.06162524 19.09243786 -16.30990277 21.44785647 -19 24 C-19.556875 24.598125 -20.11375 25.19625 -20.6875 25.8125 C-22 27 -22 27 -24 27 C-23.53711397 22.71499792 -20.81361557 20.42914587 -17.87109375 17.578125 C-17.36199966 17.07327576 -16.85290558 16.56842651 -16.3283844 16.04827881 C-14.7050088 14.44166021 -13.071503 12.84580178 -11.4375 11.25 C-10.3332995 10.16085016 -9.22977555 9.07101395 -8.12695312 7.98046875 C-5.4257471 5.3122924 -2.71540937 2.65371709 0 0 Z " fill="#3A1578" transform="translate(539,919)"/>
<path d="M0 0 C0.99 0.33 1.98 0.66 3 1 C-1.95 10.9 -6.9 20.8 -12 31 C-12.33 31 -12.66 31 -13 31 C-12.67551996 23.70443261 -9.25155525 17.94442354 -5.9375 11.5625 C-5.08575195 9.8928418 -5.08575195 9.8928418 -4.21679688 8.18945312 C-2.82016616 5.45487365 -1.41439492 2.72542164 0 0 Z " fill="#5016A2" transform="translate(165,804)"/>
<path d="M0 0 C-1.42495499 3.39911138 -3.11730289 5.11759381 -6 7.375 C-9.59911278 10.39361072 -10.62809244 12.49230372 -12 17 C-13.86931717 18.93027316 -15.82708249 20.39393054 -18 22 C-18 18 -18 18 -16.5625 16.5 C-16.046875 16.005 -15.53125 15.51 -15 15 C-14.91363281 14.42765625 -14.82726562 13.8553125 -14.73828125 13.265625 C-13.62000796 9.83388687 -11.1476448 7.71442992 -8.625 5.25 C-8.13 4.74339844 -7.635 4.23679687 -7.125 3.71484375 C-3.38011708 0 -3.38011708 0 0 0 Z " fill="#F2EEF6" transform="translate(534,920)"/>
<path d="M0 0 C4.37175621 1.67169124 7.19872554 4.94649394 10.41015625 8.21484375 C11.0188707 8.82638809 11.62758514 9.43793243 12.25474548 10.06800842 C14.19541855 12.0198515 16.12902409 13.97852982 18.0625 15.9375 C19.36737602 17.25241228 20.67270964 18.56687062 21.97851562 19.88085938 C24.85765069 22.77962297 27.73234462 25.68270857 30.60316467 28.58970642 C32.06400323 30.06461989 33.53100734 31.53321149 35 33 C32 33 32 33 30.4243927 31.79188538 C29.86257797 31.22642502 29.30076324 30.66096466 28.72192383 30.07836914 C27.76126762 29.12221458 27.76126762 29.12221458 26.78120422 28.14674377 C26.09672714 27.44991989 25.41225006 26.75309601 24.70703125 26.03515625 C24.00100266 25.32725449 23.29497406 24.61935272 22.56755066 23.88999939 C21.07545511 22.39117539 19.5869648 20.88875507 18.10180664 19.38305664 C15.81844039 17.06852148 13.52456176 14.76484109 11.22851562 12.46289062 C9.78322816 11.00843429 8.33854571 9.55337645 6.89453125 8.09765625 C6.20398148 7.4028566 5.5134317 6.70805695 4.80195618 5.99220276 C4.17097519 5.35161423 3.5399942 4.7110257 2.88989258 4.05102539 C2.33046463 3.48476944 1.77103668 2.91851349 1.19465637 2.33509827 C0 1 0 1 0 0 Z " fill="#371677" transform="translate(560,901)"/>
<path d="M0 0 C3.18019683 2.9238411 5.25351309 5.83401169 7.3125 9.625 C7.84488281 10.58664062 8.37726562 11.54828125 8.92578125 12.5390625 C9.28027344 13.35117187 9.63476562 14.16328125 10 15 C9.67 15.66 9.34 16.32 9 17 C8.34 17 7.68 17 7 17 C6.67 18.98 6.34 20.96 6 23 C5.67 23 5.34 23 5 23 C4.80664062 22.01 4.61328125 21.02 4.4140625 20 C3.09416609 13.29187055 1.75395318 6.61105428 0 0 Z " fill="#380E78" transform="translate(599,283)"/>
<path d="M0 0 C4.02871174 1.34290391 4.67538369 3.51307554 7 7 C9.81682023 9.53513821 12.53752732 11.46112326 16 13 C16 13.66 16 14.32 16 15 C17.98 15 19.96 15 22 15 C19 17 19 17 16.6875 16.875 C10.34978442 14.81155772 5.14670147 10.13182945 1 5 C0.0625 2.0625 0.0625 2.0625 0 0 Z " fill="#481890" transform="translate(116,930)"/>
<path d="M0 0 C10.35483081 2.45430527 19.84515438 7.14148843 28 14 C27.67 14.66 27.34 15.32 27 16 C26.154375 15.46890625 25.30875 14.9378125 24.4375 14.390625 C12.76352962 7.08453247 12.76352962 7.08453247 0 2 C0 1.34 0 0.68 0 0 Z " fill="#862EE8" transform="translate(551,245)"/>
<path d="M0 0 C0.99 0 1.98 0 3 0 C3 0.66 3 1.32 3 2 C2.34 2 1.68 2 1 2 C0.87625 2.9075 0.7525 3.815 0.625 4.75 C0.07890323 7.58970323 -0.57263803 9.52590591 -2 12 C-2.66 12 -3.32 12 -4 12 C-4.12375 12.763125 -4.2475 13.52625 -4.375 14.3125 C-5 17 -5 17 -7 20 C-7.66 20 -8.32 20 -9 20 C-7.55676531 15.26210835 -5.62773267 11.01141849 -3.375 6.625 C-2.88773438 5.66400391 -2.88773438 5.66400391 -2.390625 4.68359375 C-1.59742593 3.12052499 -0.79922969 1.55999378 0 0 Z " fill="#521CA0" transform="translate(141,851)"/>
<path d="M0 0 C-0.53625 0.14695313 -1.0725 0.29390625 -1.625 0.4453125 C-5.85038945 1.65455224 -9.99199121 2.97031402 -14.0859375 4.5703125 C-14.79363281 4.84601074 -15.50132812 5.12170898 -16.23046875 5.40576172 C-17.64573706 5.96291083 -19.05734054 6.52947266 -20.46484375 7.10595703 C-25.46377476 9.07104562 -25.46377476 9.07104562 -28.4765625 8.671875 C-28.97929687 8.45015625 -29.48203125 8.2284375 -30 8 C-6.01079137 -2.00359712 -6.01079137 -2.00359712 0 0 Z " fill="#9746EB" transform="translate(503,242)"/>
<path d="M0 0 C0 4.0479181 -1.49297679 5.04613442 -4.1875 8 C-4.96480469 8.86625 -5.74210937 9.7325 -6.54296875 10.625 C-8.91897467 12.92167981 -11.02905184 14.56196123 -14 16 C-14.66 15.67 -15.32 15.34 -16 15 C-13.71240451 12.68344197 -11.41925113 10.37246517 -9.125 8.0625 C-8.47402344 7.40314453 -7.82304687 6.74378906 -7.15234375 6.06445312 C-6.52714844 5.43603516 -5.90195312 4.80761719 -5.2578125 4.16015625 C-4.6817627 3.57886963 -4.10571289 2.99758301 -3.51220703 2.39868164 C-2 1 -2 1 0 0 Z " fill="#3E157C" transform="translate(482,850)"/>
<path d="M0 0 C0.33 0.99 0.66 1.98 1 3 C-5.435 8.94 -5.435 8.94 -12 15 C-12.66 14.34 -13.32 13.68 -14 13 C-12.23223041 11.20521865 -10.46097441 9.4141293 -8.6875 7.625 C-8.18798828 7.11710938 -7.68847656 6.60921875 -7.17382812 6.0859375 C-4.87457613 3.77145867 -2.72478775 1.81652517 0 0 Z " fill="#4B1297" transform="translate(497,706)"/>
<path d="M0 0 C1.14697266 3.71728516 1.14697266 3.71728516 -0.17578125 6.26171875 C-1.07876953 7.61716797 -1.07876953 7.61716797 -2 9 C-2.69390046 10.24942682 -3.37401202 11.50657356 -4.04296875 12.76953125 C-4.39423828 13.43017578 -4.74550781 14.09082031 -5.10742188 14.77148438 C-5.46384766 15.44501953 -5.82027344 16.11855469 -6.1875 16.8125 C-6.55552734 17.50537109 -6.92355469 18.19824219 -7.30273438 18.91210938 C-8.20301392 20.60744099 -9.10167245 22.30363325 -10 24 C-10.66 24 -11.32 24 -12 24 C-10.42195846 18.39523177 -7.73583615 13.64949374 -4.875 8.625 C-4.17310547 7.37783203 -4.17310547 7.37783203 -3.45703125 6.10546875 C-2.30929451 4.06765046 -1.15686718 2.03264431 0 0 Z " fill="#7F29DC" transform="translate(416,322)"/>
<path d="M0 0 C-1.50607883 4.10088936 -3.96188878 5.53509554 -7.625 7.75 C-9.12933594 8.67039062 -9.12933594 8.67039062 -10.6640625 9.609375 C-11.43492187 10.06828125 -12.20578125 10.5271875 -13 11 C-13.66 10.34 -14.32 9.68 -15 9 C-12.87885041 7.49428254 -10.75346385 5.99531321 -8.625 4.5 C-8.02171875 4.07074219 -7.4184375 3.64148438 -6.796875 3.19921875 C-2.2265625 0 -2.2265625 0 0 0 Z " fill="#5B249F" transform="translate(513,696)"/>
<path d="M0 0 C1 3 1 3 0.28735352 4.90112305 C-0.28607788 5.94586792 -0.28607788 5.94586792 -0.87109375 7.01171875 C-1.48500977 8.14770508 -1.48500977 8.14770508 -2.11132812 9.30664062 C-2.54896484 10.09232422 -2.98660156 10.87800781 -3.4375 11.6875 C-4.0881543 12.88342773 -4.0881543 12.88342773 -4.75195312 14.10351562 C-5.82574763 16.07410554 -6.90864182 18.03909927 -8 20 C-8.66 20 -9.32 20 -10 20 C-8.82965342 14.49937109 -6.68940649 10.69033963 -3.4375 6.11328125 C-2.09070952 4.13335286 -1.01628192 2.16448504 0 0 Z " fill="#4F1999" transform="translate(369,753)"/>
<path d="M0 0 C0.66 0 1.32 0 2 0 C0.65072455 4.53847198 -1.19159348 8.31932246 -3.625 12.375 C-4.25664062 13.43460938 -4.88828125 14.49421875 -5.5390625 15.5859375 C-6.02117187 16.38257813 -6.50328125 17.17921875 -7 18 C-8 15 -8 15 -6.34765625 11.42578125 C-5.59612277 10.04907832 -4.8339433 8.67814591 -4.0625 7.3125 C-3.48338867 6.2596582 -3.48338867 6.2596582 -2.89257812 5.18554688 C-1.93738227 3.45204328 -0.96984614 1.72534991 0 0 Z " fill="#5114A6" transform="translate(190,756)"/>
<path d="M0 0 C0.66 0.66 1.32 1.32 2 2 C1.57074219 2.70511719 1.14148438 3.41023438 0.69921875 4.13671875 C-0.99757323 6.99591074 -2.60291393 9.88981902 -4.1875 12.8125 C-4.71730469 13.78832031 -5.24710937 14.76414062 -5.79296875 15.76953125 C-6.19128906 16.50558594 -6.58960938 17.24164063 -7 18 C-7.99 18 -8.98 18 -10 18 C-6.7 12.06 -3.4 6.12 0 0 Z " fill="#812BDC" transform="translate(427,302)"/>
<path d="M0 0 C0 0.33 0 0.66 0 1 C-2.31 1 -4.62 1 -7 1 C-7 1.66 -7 2.32 -7 3 C-8.57925975 3.39180108 -10.16368794 3.76280736 -11.75 4.125 C-12.63171875 4.33382812 -13.5134375 4.54265625 -14.421875 4.7578125 C-17.32875493 5.03088304 -18.56661348 4.53508028 -21 3 C-13.90215087 1.18225815 -7.34918342 -0.43230491 0 0 Z " fill="#6D3CA9" transform="translate(508,670)"/>
<path d="M0 0 C3.3 0.33 6.6 0.66 10 1 C9.67 1.66 9.34 2.32 9 3 C7.865625 3.309375 6.73125 3.61875 5.5625 3.9375 C1.76783002 4.65621357 1.76783002 4.65621357 0 8 C0 5.36 0 2.72 0 0 Z " fill="#DBD2E7" transform="translate(680,895)"/>
<path d="M0 0 C0.66 0.33 1.32 0.66 2 1 C0.44396229 4.81936528 -1.95604931 7.26044438 -5 10 C-5.66 10 -6.32 10 -7 10 C-6.42424336 6.64749299 -5.40693737 5.06181371 -2.9375 2.75 C-2.38964844 2.22921875 -1.84179688 1.7084375 -1.27734375 1.171875 C-0.64505859 0.59179688 -0.64505859 0.59179688 0 0 Z " fill="#F4F0F7" transform="translate(453,875)"/>
<path d="M0 0 C1.25348607 2.95106435 1.01044806 3.97406463 -0.21484375 7.015625 C-1.06755859 8.61664062 -1.06755859 8.61664062 -1.9375 10.25 C-2.50339844 11.32765625 -3.06929688 12.4053125 -3.65234375 13.515625 C-4.09707031 14.33546875 -4.54179687 15.1553125 -5 16 C-5.66 15.67 -6.32 15.34 -7 15 C-5.45454854 9.52067211 -2.84456788 4.88570819 0 0 Z " fill="#6E2BBC" transform="translate(261,618)"/>
<path d="M0 0 C0.66 0.66 1.32 1.32 2 2 C1.64644564 4.26274788 1.02455574 5.95088852 0 8 C-0.66 8 -1.32 8 -2 8 C-2.66 9.98 -3.32 11.96 -4 14 C-4.66 14 -5.32 14 -6 14 C-4.50829734 9.0276578 -2.39542583 4.58154261 0 0 Z " fill="#7930C9" transform="translate(316,512)"/>
<path d="M0 0 C0.33 0 0.66 0 1 0 C0.59683075 6.31631828 -1.71232131 10.64993984 -5 16 C-5.66 15.67 -6.32 15.34 -7 15 C-5.63408831 11.45756548 -4.09068516 8.07372071 -2.375 4.6875 C-1.70597656 3.36298828 -1.70597656 3.36298828 -1.0234375 2.01171875 C-0.68570312 1.34785156 -0.34796875 0.68398438 0 0 Z " fill="#7B26D7" transform="translate(385,380)"/>
<path d="M0 0 C0.66 0.33 1.32 0.66 2 1 C0.97208168 4.08375495 0.29893164 4.87790925 -2 7 C-2.556875 7.556875 -3.11375 8.11375 -3.6875 8.6875 C-4.120625 9.120625 -4.55375 9.55375 -5 10 C-5.33 9.01 -5.66 8.02 -6 7 C-4.78515625 5.17578125 -4.78515625 5.17578125 -3.0625 3.3125 C-2.49660156 2.68988281 -1.93070312 2.06726563 -1.34765625 1.42578125 C-0.90292969 0.95527344 -0.45820313 0.48476563 0 0 Z " fill="#411782" transform="translate(481,915)"/>
<path d="M0 0 C6.92307692 4.46153846 6.92307692 4.46153846 9 7 C9 7.66 9 8.32 9 9 C9.99 9.33 10.98 9.66 12 10 C13.1875 12.5625 13.1875 12.5625 14 15 C3.75285171 6.42585551 3.75285171 6.42585551 0 2 C0 1.34 0 0.68 0 0 Z " fill="#3B0F7B" transform="translate(654,873)"/>
<path d="M0 0 C4.84659077 0.59104765 8.60748167 1.97944157 13 4 C13 4.99 13 5.98 13 7 C8.1725201 5.58707905 4.2837641 3.57025846 0 1 C0 0.67 0 0.34 0 0 Z " fill="#511C97" transform="translate(708,675)"/>
<path d="M0 0 C0.33 0 0.66 0 1 0 C1.35127162 4.21525941 0.63698951 5.77701282 -2 9 C-3.03041427 10.98450156 -4.03685937 12.98199105 -5 15 C-5.66 15 -6.32 15 -7 15 C-5.45454854 9.52067211 -2.84456788 4.88570819 0 0 Z " fill="#7F2DDA" transform="translate(393,365)"/>
<path d="M0 0 C0.99 0.33 1.98 0.66 3 1 C-0.33333333 4.33333333 -3.66666667 7.66666667 -7 11 C-7.33 10.01 -7.66 9.02 -8 8 C-5.36 5.36 -2.72 2.72 0 0 Z " fill="#451986" transform="translate(455,877)"/>
<path d="M0 0 C0.99 0.33 1.98 0.66 3 1 C2.04855402 2.81612488 1.08863067 4.62781081 0.125 6.4375 C-0.40867188 7.44683594 -0.94234375 8.45617187 -1.4921875 9.49609375 C-3 12 -3 12 -5 13 C-4.39254603 8.14036821 -2.27241033 4.2594482 0 0 Z " fill="#561BA8" transform="translate(198,739)"/>
<path d="M0 0 C0.66 0.99 1.32 1.98 2 3 C0.68 5.64 -0.64 8.28 -2 11 C-2.99 11 -3.98 11 -5 11 C-3.77472971 6.94718288 -2.30119506 3.55639236 0 0 Z " fill="#7C31CE" transform="translate(334,478)"/>
<path d="M0 0 C0.66 0 1.32 0 2 0 C1 3 1 3 -1.0625 4.6875 C-4.96588809 6.43156702 -7.74981335 6.21611119 -12 6 C-11.67 5.34 -11.34 4.68 -11 4 C-9.01354224 3.59367909 -7.00946222 3.27050453 -5 3 C-3.33195323 2.67364302 -1.66475686 2.34274406 0 2 C0 1.34 0 0.68 0 0 Z " fill="#431789" transform="translate(262,941)"/>
<path d="M0 0 C0.66 0.33 1.32 0.66 2 1 C-2 5 -6 9 -10 13 C-10 10 -10 10 -7.8125 7.51953125 C-6.884375 6.62621094 -5.95625 5.73289062 -5 4.8125 C-4.071875 3.91144531 -3.14375 3.01039063 -2.1875 2.08203125 C-1.1046875 1.05142578 -1.1046875 1.05142578 0 0 Z " fill="#310C73" transform="translate(539,919)"/>
<path d="M0 0 C2.86453858 3.41016497 4.34703566 6.90694544 6 11 C5.34 11.66 4.68 12.32 4 13 C3.13372601 11.40233897 2.28233535 9.79660056 1.4375 8.1875 C0.96183594 7.29417969 0.48617187 6.40085937 -0.00390625 5.48046875 C-1 3 -1 3 0 0 Z " fill="#4F1897" transform="translate(857,753)"/>
<path d="M0 0 C0.66 0 1.32 0 2 0 C2 0.66 2 1.32 2 2 C2.66 2 3.32 2 4 2 C4 2.66 4 3.32 4 4 C5.65 4.33 7.3 4.66 9 5 C9 5.66 9 6.32 9 7 C9.99 7.33 10.98 7.66 12 8 C7.6305794 7.74297526 5.48177009 7.39976667 2.0625 4.5625 C0 2 0 2 0 0 Z " fill="#EF2335" transform="translate(993,939)"/>
<path d="M0 0 C3.45201639 1.47721422 5.64961936 3.43794001 8.25 6.125 C8.95640625 6.84945312 9.6628125 7.57390625 10.390625 8.3203125 C11.18726563 9.15175781 11.18726563 9.15175781 12 10 C11.67 10.66 11.34 11.32 11 12 C9.16053461 10.38150935 7.32848583 8.75581169 5.5 7.125 C4.97535156 6.66480469 4.45070313 6.20460938 3.91015625 5.73046875 C2.56858245 4.52827924 1.28000815 3.26754054 0 2 C0 1.34 0 0.68 0 0 Z " fill="#4E218D" transform="translate(650,805)"/>
<path d="M0 0 C2.475 0.99 2.475 0.99 5 2 C5 2.66 5 3.32 5 4 C5.94875 4.309375 6.8975 4.61875 7.875 4.9375 C11 6 11 6 13 7 C12.67 7.66 12.34 8.32 12 9 C7.38 6.69 2.76 4.38 -2 2 C-1.34 1.34 -0.68 0.68 0 0 Z " fill="#4F1C94" transform="translate(647,642)"/>
<path d="M0 0 C0.66 0.99 1.32 1.98 2 3 C0.35 5.97 -1.3 8.94 -3 12 C-3.66 12 -4.32 12 -5 12 C-3.68938409 7.76570244 -2.05643741 3.92592596 0 0 Z " fill="#7B27D2" transform="translate(365,418)"/>
<path d="M0 0 C1 3 1 3 -0.14453125 5.48046875 C-0.97017578 6.82044922 -0.97017578 6.82044922 -1.8125 8.1875 C-2.35519531 9.08855469 -2.89789063 9.98960937 -3.45703125 10.91796875 C-3.96621094 11.60503906 -4.47539062 12.29210937 -5 13 C-5.66 13 -6.32 13 -7 13 C-5.58832253 7.73829306 -3.25149768 4.27828642 0 0 Z " fill="#852DE2" transform="translate(441,277)"/>
<path d="M0 0 C3.07692057 2.76922851 4.77800007 5.02850024 6 9 C6 9.99 6 10.98 6 12 C5.34 12 4.68 12 4 12 C2.35 8.37 0.7 4.74 -1 1 C-0.67 0.67 -0.34 0.34 0 0 Z " fill="#4B1295" transform="translate(760,707)"/>
<path d="M0 0 C5.75 1.875 5.75 1.875 8 3 C8 3.66 8 4.32 8 5 C9.32 5.33 10.64 5.66 12 6 C9 7 9 7 6.51953125 6.00390625 C5.62621094 5.52824219 4.73289062 5.05257812 3.8125 4.5625 C2.91144531 4.08941406 2.01039063 3.61632812 1.08203125 3.12890625 C0.39496094 2.75636719 -0.29210937 2.38382813 -1 2 C-0.67 1.34 -0.34 0.68 0 0 Z " fill="#532198" transform="translate(677,658)"/>
<path d="M0 0 C0.88336837 2.4667645 1.1312406 3.63859372 0.22265625 6.140625 C-0.16019531 6.83671875 -0.54304688 7.5328125 -0.9375 8.25 C-1.31777344 8.95640625 -1.69804687 9.6628125 -2.08984375 10.390625 C-2.39019531 10.92171875 -2.69054687 11.4528125 -3 12 C-3.66 11.67 -4.32 11.34 -5 11 C-3.77472971 6.94718288 -2.30119506 3.55639236 0 0 Z " fill="#732DC8" transform="translate(305,534)"/>
<path d="M0 0 C0.99 0 1.98 0 3 0 C3 0.66 3 1.32 3 2 C2.34 2 1.68 2 1 2 C1 2.66 1 3.32 1 4 C-1.3125 6.625 -1.3125 6.625 -4 9 C-4.99 9 -5.98 9 -7 9 C-6.57847656 8.51789062 -6.15695312 8.03578125 -5.72265625 7.5390625 C-5.17480469 6.90742187 -4.62695312 6.27578125 -4.0625 5.625 C-3.51722656 4.99851562 -2.97195313 4.37203125 -2.41015625 3.7265625 C-0.93041376 2.04367666 -0.93041376 2.04367666 0 0 Z " fill="#EDE6F4" transform="translate(556,957)"/>
<path d="M0 0 C-4.75 4.875 -4.75 4.875 -7 6 C-7.66 5.67 -8.32 5.34 -9 5 C-6.81610567 0.16423399 -5.20641855 -0.13701101 0 0 Z " fill="#4F1D96" transform="translate(389,790)"/>
<path d="M0 0 C2.475 0.495 2.475 0.495 5 1 C5.33 1.99 5.66 2.98 6 4 C8.00016466 5.20882096 8.00016466 5.20882096 10 6 C9.34 6.66 8.68 7.32 8 8 C6.66372225 6.85760183 5.33104612 5.71098945 4 4.5625 C3.2575 3.92441406 2.515 3.28632812 1.75 2.62890625 C1.1725 2.09136719 0.595 1.55382812 0 1 C0 0.67 0 0.34 0 0 Z " fill="#542195" transform="translate(594,753)"/>
<path d="M0 0 C0.33 0 0.66 0 1 0 C1.39169887 2.66355234 1.40564529 4.39224373 -0.11328125 6.66796875 C-1.36389317 8.1510888 -2.67864514 9.57954352 -4 11 C-5 8 -5 8 -4.0390625 5.95703125 C-3.57242187 5.24933594 -3.10578125 4.54164063 -2.625 3.8125 C-2.16351563 3.09707031 -1.70203125 2.38164063 -1.2265625 1.64453125 C-0.82179688 1.10183594 -0.41703125 0.55914063 0 0 Z " fill="#4B1695" transform="translate(472,733)"/>
<path d="M0 0 C-0.99 0 -1.98 0 -3 0 C-3.33 0.99 -3.66 1.98 -4 3 C-6.8125 3.625 -6.8125 3.625 -10 4 C-10.99 3.34 -11.98 2.68 -13 2 C-11.5882217 1.46605821 -10.17029756 0.94834896 -8.75 0.4375 C-7.96109375 0.14746094 -7.1721875 -0.14257812 -6.359375 -0.44140625 C-3.80896548 -1.04522837 -2.44677771 -0.8473932 0 0 Z " fill="#622FA1" transform="translate(726,716)"/>
<path d="M0 0 C2.475 0.99 2.475 0.99 5 2 C5 2.66 5 3.32 5 4 C8.3 4 11.6 4 15 4 C15 4.33 15 4.66 15 5 C13.2507786 5.08142927 11.50045458 5.13938541 9.75 5.1875 C8.77546875 5.22230469 7.8009375 5.25710938 6.796875 5.29296875 C3.60293349 4.95840784 2.27119696 4.23334367 0 2 C0 1.34 0 0.68 0 0 Z " fill="#59318E" transform="translate(447,918)"/>
<path d="M0 0 C0.66 0 1.32 0 2 0 C4.90108294 3.82942948 5.53680089 7.27536912 6 12 C0 4.28571429 0 4.28571429 0 0 Z " fill="#48158D" transform="translate(569,556)"/>
<path d="M0 0 C0.66 0.99 1.32 1.98 2 3 C0.35 5.97 -1.3 8.94 -3 12 C-3.66 11.34 -4.32 10.68 -5 10 C-3.35 6.7 -1.7 3.4 0 0 Z " fill="#7826D4" transform="translate(375,399)"/>
<path d="M0 0 C2.36964362 2.15422147 3.57980514 4.15961028 5 7 C6.5412312 8.70921589 6.5412312 8.70921589 8 10 C7.67 10.99 7.34 11.98 7 13 C0 4.79310345 0 4.79310345 0 0 Z " fill="#371374" transform="translate(767,914)"/>
<path d="M0 0 C5.53846154 0.61538462 5.53846154 0.61538462 7.875 2.5625 C8.431875 3.2740625 8.431875 3.2740625 9 4 C8.01 4.495 8.01 4.495 7 5 C7 4.34 7 3.68 7 3 C6.13375 3.2784375 6.13375 3.2784375 5.25 3.5625 C2.79307475 4.04023546 1.35602466 3.75729364 -1 3 C-0.67 2.01 -0.34 1.02 0 0 Z " fill="#6936AC" transform="translate(738,714)"/>
<path d="M0 0 C0.90492188 0.02320313 1.80984375 0.04640625 2.7421875 0.0703125 C4.10730469 0.09738281 4.10730469 0.09738281 5.5 0.125 C6.19867187 0.14820313 6.89734375 0.17140625 7.6171875 0.1953125 C6.41015625 1.71484375 6.41015625 1.71484375 4.6171875 3.1953125 C2.35546875 3.26953125 2.35546875 3.26953125 -0.0703125 2.8828125 C-1.28267578 2.70298828 -1.28267578 2.70298828 -2.51953125 2.51953125 C-3.13441406 2.41253906 -3.74929688 2.30554688 -4.3828125 2.1953125 C-2.3828125 0.1953125 -2.3828125 0.1953125 0 0 Z " fill="#6F3EAE" transform="translate(730.3828125,712.8046875)"/>
<path d="M0 0 C0.99 0.33 1.98 0.66 3 1 C1.70700306 3.88437779 0.34058637 5.87219421 -2 8 C-2.66 7.67 -3.32 7.34 -4 7 C-2.68 4.69 -1.36 2.38 0 0 Z " fill="#EFEAF4" transform="translate(539,911)"/>
<path d="M0 0 C0.33 0 0.66 0 1 0 C1.36444983 4.25191465 0.56111503 6.58517997 -2 10 C-2.99 10.33 -3.98 10.66 -5 11 C-3.55049545 7.2089881 -1.84827434 3.6125362 0 0 Z " fill="#55249A" transform="translate(464,745)"/>
<path d="M0 0 C0.33 0 0.66 0 1 0 C1.3125 2.25 1.3125 2.25 1 5 C-1.5 7.3125 -1.5 7.3125 -4 9 C-4 4.98525763 -2.33218233 3.18024863 0 0 Z " fill="#501B98" transform="translate(480,722)"/>
<path d="M0 0 C0.6875 1.625 0.6875 1.625 1 4 C-0.4375 7.25 -0.4375 7.25 -2 10 C-2.66 9.67 -3.32 9.34 -4 9 C-2.94124926 5.59687262 -1.99097846 2.98646769 0 0 Z " fill="#732FC2" transform="translate(280,582)"/>
<path d="M0 0 C0.66 0.99 1.32 1.98 2 3 C0.38731308 5.71224618 -1.24901874 8.37352812 -3 11 C-3.66 11 -4.32 11 -5 11 C-3.55049545 7.2089881 -1.84827434 3.6125362 0 0 Z " fill="#7B28D9" transform="translate(403,346)"/>
<path d="M0 0 C0.33 0.99 0.66 1.98 1 3 C-0.65 4.32 -2.3 5.64 -4 7 C-4.66 6.34 -5.32 5.68 -6 5 C-4.02 3.35 -2.04 1.7 0 0 Z " fill="#531D97" transform="translate(497,706)"/>
<path d="M0 0 C0.33 0.66 0.66 1.32 1 2 C0.34 2 -0.32 2 -1 2 C-1 2.66 -1 3.32 -1 4 C-3.5 5.625 -3.5 5.625 -6 7 C-6.99 6.34 -7.98 5.68 -9 5 C-6.03 3.35 -3.06 1.7 0 0 Z " fill="#5E2AA2" transform="translate(526,688)"/>
<path d="M0 0 C-0.66 0 -1.32 0 -2 0 C-2 0.66 -2 1.32 -2 2 C-5.375 2.625 -5.375 2.625 -9 3 C-9.66 2.34 -10.32 1.68 -11 1 C-3.57142857 -1.42857143 -3.57142857 -1.42857143 0 0 Z " fill="#5F2FA0" transform="translate(487,675)"/>
<path d="M0 0 C0.66 0.33 1.32 0.66 2 1 C0.7508258 4.45925163 -0.67527795 7.14693203 -3 10 C-3.33 9.01 -3.66 8.02 -4 7 C-3.34 7 -2.68 7 -2 7 C-1.855625 6.21625 -1.71125 5.4325 -1.5625 4.625 C-1 2 -1 2 0 0 Z " fill="#6B25BE" transform="translate(497,524)"/>
<path d="M0 0 C1 3 1 3 -0.375 6.0625 C-0.91125 7.031875 -1.4475 8.00125 -2 9 C-2.33 9.66 -2.66 10.32 -3 11 C-3.66 11 -4.32 11 -5 11 C-3.77472971 6.94718288 -2.30119506 3.55639236 0 0 Z " fill="#E2D4F0" transform="translate(340,810)"/>
<path d="M0 0 C2.72426311 2.35277269 3.8141763 4.62496331 5 8 C4.01 8 3.02 8 2 8 C0.23537317 4.91190305 0 3.76687864 0 0 Z " fill="#49158F" transform="translate(867,773)"/>
<path d="M0 0 C1.0326802 2.78823655 1.04509293 3.8677274 0.0625 6.75 C-0.288125 7.4925 -0.63875 8.235 -1 9 C-1.99 9 -2.98 9 -4 9 C-2.94124926 5.59687262 -1.99097846 2.98646769 0 0 Z " fill="#7A35CD" transform="translate(321,503)"/>
<path d="M0 0 C0.33 0.99 0.66 1.98 1 3 C-1.97 5.475 -1.97 5.475 -5 8 C-4.45773019 4.20411134 -2.79872437 2.52788007 0 0 Z " fill="#462481" transform="translate(555,956)"/>
<path d="M0 0 C0 3.20395416 -0.74335022 5.09399739 -2 8 C-2.99 7.67 -3.98 7.34 -5 7 C-3.70700306 4.11562221 -2.34058637 2.12780579 0 0 Z " fill="#DDD3EA" transform="translate(537,913)"/>
<path d="M0 0 C0.66 0.33 1.32 0.66 2 1 C2 2.98 2 4.96 2 7 C1.01 7.33 0.02 7.66 -1 8 C-0.67 5.36 -0.34 2.72 0 0 Z " fill="#F6F4F9" transform="translate(547,891)"/>
<path d="M0 0 C0.99 0.33 1.98 0.66 3 1 C4.1875 4.0625 4.1875 4.0625 5 7 C4.34 7.66 3.68 8.32 3 9 C2.01 6.03 1.02 3.06 0 0 Z " fill="#492089" transform="translate(921,875)"/>
<path d="M0 0 C0.66 0.33 1.32 0.66 2 1 C-0.31 2.65 -2.62 4.3 -5 6 C-5.66 5.67 -6.32 5.34 -7 5 C-4.63707344 2.47411298 -3.33537489 1.11179163 0 0 Z " fill="#4A1D88" transform="translate(473,860)"/>
<path d="M0 0 C0.33 0 0.66 0 1 0 C1.125 5.75 1.125 5.75 0 8 C-0.99 8 -1.98 8 -3 8 C-1.125 2.25 -1.125 2.25 0 0 Z " fill="#7429C7" transform="translate(325,495)"/>
<path d="M0 0 C0.66 0.99 1.32 1.98 2 3 C0.515 5.475 0.515 5.475 -1 8 C-1.66 7.67 -2.32 7.34 -3 7 C-1.125 2.25 -1.125 2.25 0 0 Z " fill="#7D2DD3" transform="translate(359,430)"/>
<path d="M0 0 C0.66 0.99 1.32 1.98 2 3 C0.35 4.98 -1.3 6.96 -3 9 C-3.33 8.01 -3.66 7.02 -4 6 C-2.0625 2.8125 -2.0625 2.8125 0 0 Z " fill="#E6DCEF" transform="translate(571,940)"/>
<path d="M0 0 C0.99 0.66 1.98 1.32 3 2 C1.02 3.32 -0.96 4.64 -3 6 C-3.66 5.67 -4.32 5.34 -5 5 C-3.35 3.35 -1.7 1.7 0 0 Z " fill="#482184" transform="translate(504,891)"/>
</svg>
