<?xml version="1.0" encoding="UTF-8"?>
<svg version="1.1" xmlns="http://www.w3.org/2000/svg" width="300" height="243">
<path d="M0 0 C99 0 198 0 300 0 C300 80.19 300 160.38 300 243 C201 243 102 243 0 243 C0 162.81 0 82.62 0 0 Z " fill="#FDFCFC" transform="translate(0,0)"/>
<path d="M0 0 C5.93735089 4.88182184 8.89268789 11.01329455 12.3125 17.75 C16.33810415 25.57873095 20.4370706 33.35352737 24.6875 41.0625 C29.86009753 50.46357212 34.81327225 59.96907165 39.70874023 69.51708984 C42.36841441 74.68422231 45.05866709 79.8137322 47.95703125 84.8515625 C48.43188965 85.67817383 48.90674805 86.50478516 49.39599609 87.35644531 C50.26987433 88.8609151 51.15609811 90.35831279 52.05712891 91.84667969 C53.81939518 94.87471545 54.85991889 96.73895719 54.56640625 100.2890625 C54.31761719 100.95679688 54.06882812 101.62453125 53.8125 102.3125 C50.58381254 102.45834064 47.35597635 102.54674106 44.125 102.625 C43.21298828 102.66689453 42.30097656 102.70878906 41.36132812 102.75195312 C34.53155071 102.8761309 34.53155071 102.8761309 30.8125 99.9609375 C30.1525 99.08695312 29.4925 98.21296875 28.8125 97.3125 C27.6678125 95.9821875 27.6678125 95.9821875 26.5 94.625 C24.8125 92.3125 24.8125 92.3125 24.8125 90.3125 C24.1525 90.3125 23.4925 90.3125 22.8125 90.3125 C22.3175 92.2925 22.3175 92.2925 21.8125 94.3125 C21.19375 94.395 20.575 94.4775 19.9375 94.5625 C17.63277141 95.10644438 17.63277141 95.10644438 16.75 97.3125 C16.2859375 98.3025 16.2859375 98.3025 15.8125 99.3125 C14.3275 99.8075 14.3275 99.8075 12.8125 100.3125 C12.338125 100.786875 11.86375 101.26125 11.375 101.75 C9.03687375 104.08812625 7.18365405 105.25358322 3.8125 105.3984375 C1.81240966 105.37700796 -0.18756358 105.34528584 -2.1875 105.3125 C-2.5175 105.6425 -2.8475 105.9725 -3.1875 106.3125 C-4.85367115 106.35313832 -6.52138095 106.355221 -8.1875 106.3125 C-7.64854623 102.5398236 -6.19214642 100.63037009 -3.1875 98.3125 C-0.9375 98.5625 -0.9375 98.5625 0.8125 99.3125 C1.1425 100.6325 1.4725 101.9525 1.8125 103.3125 C2.8025 102.9825 3.7925 102.6525 4.8125 102.3125 C2.8325 100.0025 0.8525 97.6925 -1.1875 95.3125 C2.8125 97.3125 2.8125 97.3125 4.8125 98.875 C6.85693806 100.34443986 8.35772028 100.87414648 10.8125 101.3125 C8.87393438 97.7261536 7.0900413 95.68589198 3.8125 93.3125 C3.8125 92.6525 3.8125 91.9925 3.8125 91.3125 C6.37701085 92.41157608 7.90804946 93.4109449 9.875 95.4375 C11.72243327 97.66021071 11.72243327 97.66021071 14.8125 97.3125 C14.24290847 93.68636801 12.88875466 92.05732259 10.25 89.5625 C9.60933594 88.94890625 8.96867187 88.3353125 8.30859375 87.703125 C7.81488281 87.24421875 7.32117188 86.7853125 6.8125 86.3125 C10.38680369 86.3125 10.75037409 86.88398438 13.25 89.25 C15.72606523 91.59312213 17.42955004 92.72513067 20.8125 93.3125 C19.73757097 87.80348873 17.14291335 85.44431441 12.9609375 82.0625 C10.8125 80.3125 10.8125 80.3125 8.9765625 78.5 C5.89540933 75.48855618 4.62408792 74.35447869 0.1875 74.125 C-3.3339306 75.0837145 -3.3339306 75.0837145 -5.6875 77.875 C-8.1875 80.3125 -8.1875 80.3125 -12 80.625 C-13.051875 80.521875 -14.10375 80.41875 -15.1875 80.3125 C-15.89453125 78.078125 -15.89453125 78.078125 -16.1875 75.3125 C-14.82421875 73.109375 -14.82421875 73.109375 -12.875 71.0625 C-12.23949219 70.37671875 -11.60398438 69.6909375 -10.94921875 68.984375 C-9.1875 67.3125 -9.1875 67.3125 -7.1875 66.3125 C-7.87457031 66.40789062 -8.56164062 66.50328125 -9.26953125 66.6015625 C-10.17058594 66.71242188 -11.07164062 66.82328125 -12 66.9375 C-13.33998047 67.11152344 -13.33998047 67.11152344 -14.70703125 67.2890625 C-17.1875 67.3125 -17.1875 67.3125 -20.1875 65.3125 C-20.1875 64.6525 -20.1875 63.9925 -20.1875 63.3125 C-19.445 63.4775 -18.7025 63.6425 -17.9375 63.8125 C-8.86592861 65.1914808 -8.86592861 65.1914808 -0.1953125 63.30078125 C2.62946409 61.91037565 4.69522998 62.02946918 7.8125 62.3125 C10.62890625 63.40625 10.62890625 63.40625 13.375 64.8125 C17.08888669 66.70895278 19.62204082 67.70295876 23.8125 67.3125 C24.8025 66.9825 25.7925 66.6525 26.8125 66.3125 C26.8125 65.6525 26.8125 64.9925 26.8125 64.3125 C25.84376953 64.13847656 25.84376953 64.13847656 24.85546875 63.9609375 C7.04545427 60.16573544 7.04545427 60.16573544 2.00048828 54.15283203 C-6.1875 41.47992785 -6.1875 41.47992785 -6.1875 35.3125 C-6.8475 35.3125 -7.5075 35.3125 -8.1875 35.3125 C-8.42855469 35.96476562 -8.66960937 36.61703125 -8.91796875 37.2890625 C-10.56431503 41.20989949 -12.51308085 44.92996219 -14.5 48.6875 C-14.93513916 49.51185547 -15.37027832 50.33621094 -15.81860352 51.18554688 C-20.88419478 60.71450761 -26.20189675 70.09935975 -31.56054688 79.46582031 C-33.17690915 82.2939692 -34.78408216 85.12720195 -36.390625 87.9609375 C-37.38486369 89.70344064 -38.37962944 91.44564317 -39.375 93.1875 C-40.06130493 94.40083008 -40.06130493 94.40083008 -40.76147461 95.63867188 C-41.39581421 96.74178711 -41.39581421 96.74178711 -42.04296875 97.8671875 C-42.41059326 98.51155762 -42.77821777 99.15592773 -43.15698242 99.81982422 C-44.1875 101.3125 -44.1875 101.3125 -46.1875 102.3125 C-47.9279417 102.39699628 -49.67159722 102.41973024 -51.4140625 102.41015625 C-52.9609375 102.40532227 -52.9609375 102.40532227 -54.5390625 102.40039062 C-56.15941406 102.38782227 -56.15941406 102.38782227 -57.8125 102.375 C-59.44445312 102.36823242 -59.44445312 102.36823242 -61.109375 102.36132812 C-63.80213789 102.34951776 -66.49479188 102.33304778 -69.1875 102.3125 C-70.24671885 99.63406064 -70.28141726 98.55117412 -69.2097168 95.82763672 C-68.43108276 94.42408936 -68.43108276 94.42408936 -67.63671875 92.9921875 C-66.75584595 91.37932861 -66.75584595 91.37932861 -65.85717773 89.73388672 C-65.1964521 88.55175766 -64.53572618 87.36962876 -63.875 86.1875 C-63.19395613 84.94756595 -62.51438138 83.706824 -61.83618164 82.46533203 C-60.75742353 80.4906927 -59.67786698 78.51654341 -58.59410095 76.54464722 C-54.73663812 69.52144272 -50.99792926 62.43695434 -47.26370239 55.34768677 C-43.91596242 48.99682316 -40.55018325 42.65546024 -37.1875 36.3125 C-36.84317932 35.66275208 -36.49885864 35.01300415 -36.144104 34.34356689 C-33.9164293 30.14148042 -31.67928267 25.94457725 -29.4375 21.75 C-28.88956787 20.71665527 -28.34163574 19.68331055 -27.77709961 18.61865234 C-18.64832379 1.59582888 -18.64832379 1.59582888 -13.75 -0.75 C-8.42680853 -2.15083986 -4.96191518 -2.62689627 0 0 Z " fill="#6628B0" transform="translate(147.1875,44.6875)"/>
<path d="M0 0 C0.66 0 1.32 0 2 0 C2.45101074 0.87229248 2.45101074 0.87229248 2.91113281 1.76220703 C8.46140147 12.48307744 14.05428204 23.17311439 19.875 33.75 C25.04678692 43.15153926 30.00075632 52.65654059 34.89624023 62.20458984 C37.55591441 67.37172231 40.24616709 72.5012322 43.14453125 77.5390625 C43.61938965 78.36567383 44.09424805 79.19228516 44.58349609 80.04394531 C45.45737433 81.5484151 46.34359811 83.04581279 47.24462891 84.53417969 C49.00689518 87.56221545 50.04741889 89.42645719 49.75390625 92.9765625 C49.50511719 93.64429688 49.25632812 94.31203125 49 95 C45.77131254 95.14584064 42.54347635 95.23424106 39.3125 95.3125 C38.40048828 95.35439453 37.48847656 95.39628906 36.54882812 95.43945312 C29.71905071 95.5636309 29.71905071 95.5636309 26 92.6484375 C25.34 91.77445312 24.68 90.90046875 24 90 C22.8553125 88.6696875 22.8553125 88.6696875 21.6875 87.3125 C20 85 20 85 20 83 C19.34 83 18.68 83 18 83 C17.505 84.98 17.505 84.98 17 87 C16.38125 87.0825 15.7625 87.165 15.125 87.25 C12.82027141 87.79394438 12.82027141 87.79394438 11.9375 90 C11.628125 90.66 11.31875 91.32 11 92 C10.01 92.33 9.02 92.66 8 93 C7.525625 93.474375 7.05125 93.94875 6.5625 94.4375 C4.22437375 96.77562625 2.37115405 97.94108322 -1 98.0859375 C-3.00009034 98.06450796 -5.00006358 98.03278584 -7 98 C-7.33 98.33 -7.66 98.66 -8 99 C-9.66617115 99.04063832 -11.33388095 99.042721 -13 99 C-12.46104623 95.2273236 -11.00464642 93.31787009 -8 91 C-5.75 91.25 -5.75 91.25 -4 92 C-3.67 93.32 -3.34 94.64 -3 96 C-1.515 95.505 -1.515 95.505 0 95 C-1.98 92.69 -3.96 90.38 -6 88 C-2 90 -2 90 0 91.5625 C2.04443806 93.03193986 3.54522028 93.56164648 6 94 C4.06143438 90.4136536 2.2775413 88.37339198 -1 86 C-1 85.34 -1 84.68 -1 84 C1.56451085 85.09907608 3.09554946 86.0984449 5.0625 88.125 C6.90993327 90.34771071 6.90993327 90.34771071 10 90 C9.43040847 86.37386801 8.07625466 84.74482259 5.4375 82.25 C4.79683594 81.63640625 4.15617187 81.0228125 3.49609375 80.390625 C3.00238281 79.93171875 2.50867188 79.4728125 2 79 C5.57430369 79 5.93787409 79.57148438 8.4375 81.9375 C10.91356523 84.28062213 12.61705004 85.41263067 16 86 C14.92507097 80.49098873 12.33041335 78.13181441 8.1484375 74.75 C6 73 6 73 4.1640625 71.1875 C1.08290933 68.17605618 -0.18841208 67.04197869 -4.625 66.8125 C-8.1464306 67.7712145 -8.1464306 67.7712145 -10.5 70.5625 C-13 73 -13 73 -16.8125 73.3125 C-17.864375 73.209375 -18.91625 73.10625 -20 73 C-20.70703125 70.765625 -20.70703125 70.765625 -21 68 C-19.63671875 65.796875 -19.63671875 65.796875 -17.6875 63.75 C-17.05199219 63.06421875 -16.41648438 62.3784375 -15.76171875 61.671875 C-14 60 -14 60 -12 59 C-12.68707031 59.09539062 -13.37414062 59.19078125 -14.08203125 59.2890625 C-14.98308594 59.39992187 -15.88414062 59.51078125 -16.8125 59.625 C-17.70582031 59.74101563 -18.59914062 59.85703125 -19.51953125 59.9765625 C-22 60 -22 60 -25 58 C-25 57.34 -25 56.68 -25 56 C-24.2575 56.165 -23.515 56.33 -22.75 56.5 C-13.67842861 57.8789808 -13.67842861 57.8789808 -5.0078125 55.98828125 C-2.18303591 54.59787565 -0.11727002 54.71696918 3 55 C5.81640625 56.09375 5.81640625 56.09375 8.5625 57.5 C12.27638669 59.39645278 14.80954082 60.39045876 19 60 C19.99 59.67 20.98 59.34 22 59 C22 58.34 22 57.68 22 57 C21.35289062 56.88140625 20.70578125 56.7628125 20.0390625 56.640625 C19.03617188 56.42921875 18.03328125 56.2178125 17 56 C16.36545898 55.86787109 15.73091797 55.73574219 15.07714844 55.59960938 C5.5848708 53.40065996 -1.19041143 50.1732165 -6.59863281 41.80810547 C-12.40885107 31.35677557 -12.40885107 31.35677557 -11.70507812 25.57861328 C-10.2862678 21.12512531 -7.91536029 17.47437639 -5.17211914 13.7277832 C-2.36114143 9.58421119 -0.748518 4.94021879 0 0 Z " fill="#52208F" transform="translate(152,52)"/>
<path d="M0 0 C1.96428367 1.96428367 1.12023917 4.98297163 1.12442017 7.59747314 C1.11902725 9.02274323 1.11902725 9.02274323 1.11352539 10.47680664 C1.11367142 11.47181686 1.11381744 12.46682709 1.1139679 13.49198914 C1.11326831 16.79806662 1.10547379 20.10408854 1.09765625 23.41015625 C1.09579223 25.69559193 1.09436825 27.98102801 1.09336853 30.26646423 C1.08954207 36.29498387 1.0797107 42.32347959 1.06866455 48.35198975 C1.05845317 54.49832841 1.0538715 60.64467093 1.04882812 66.79101562 C1.03808854 78.86068762 1.0210106 90.93034182 1 103 C-0.98 103.495 -0.98 103.495 -3 104 C-11.7890625 87.88671875 -11.7890625 87.88671875 -13.38134766 84.87573242 C-14.91054237 82.02090024 -14.91054237 82.02090024 -16.72412109 79.6652832 C-23.41282584 70.00612883 -21.64075102 58.03003428 -21.375 46.8125 C-21.3448622 44.59834356 -21.31749314 42.38414761 -21.29296875 40.16992188 C-21.22727983 34.77907708 -21.12723569 29.38972503 -21 24 C-21.66 24 -22.32 24 -23 24 C-23 24.66 -23 25.32 -23 26 C-25.21844788 27.69646014 -27.4134008 29.23399219 -29.75 30.75 C-30.70132813 31.40548828 -30.70132813 31.40548828 -31.671875 32.07421875 C-33.546875 33.296875 -33.546875 33.296875 -37 35 C-39.390625 34.390625 -39.390625 34.390625 -41 33 C-43.27221503 28.45556994 -42.7659594 22.89624818 -42 18 C-39.98380749 14.7502984 -37.12901443 13.12067597 -34 11 C-32.92298867 10.0560833 -31.85597003 9.10069482 -30.796875 8.13671875 C-20.98103813 -0.42444183 -12.79710604 -1.6633555 0 0 Z " fill="#FD5457" transform="translate(213,43)"/>
<path d="M0 0 C5.383125 -0.1546875 5.383125 -0.1546875 10.875 -0.3125 C11.98472168 -0.35802002 13.09444336 -0.40354004 14.23779297 -0.45043945 C21.50212636 -0.55024194 26.97686765 0.83928358 33 5 C38.06799171 9.95512296 39.40918667 14.36548687 39.6875 21.4375 C39.39498093 28.21305791 38.13982389 33.55629457 34 39 C23.90964989 47.58753201 13.45368396 45 0 45 C0 30.15 0 15.3 0 0 Z " fill="#0F1933" transform="translate(126,161)"/>
<path d="M0 0 C1.37478516 0.01740234 1.37478516 0.01740234 2.77734375 0.03515625 C3.69644531 0.04417969 4.61554688 0.05320313 5.5625 0.0625 C6.27277344 0.07410156 6.98304687 0.08570313 7.71484375 0.09765625 C11.21773814 7.67309047 14.21036926 15.42016836 17.14355469 23.22875977 C17.97053753 25.42527929 18.80741297 27.61787328 19.64453125 29.81054688 C20.17378546 31.21461458 20.70245273 32.6189037 21.23046875 34.0234375 C21.60537445 35.00006096 21.60537445 35.00006096 21.987854 35.99641418 C23.21509434 39.2964642 23.71484375 41.51141865 23.71484375 45.09765625 C20.74484375 45.09765625 17.77484375 45.09765625 14.71484375 45.09765625 C13.72484375 42.45765625 12.73484375 39.81765625 11.71484375 37.09765625 C5.77484375 37.09765625 -0.16515625 37.09765625 -6.28515625 37.09765625 C-7.27515625 39.73765625 -8.26515625 42.37765625 -9.28515625 45.09765625 C-12.58515625 45.09765625 -15.88515625 45.09765625 -19.28515625 45.09765625 C-17.35180928 39.22317243 -15.33538496 33.39535012 -13.18359375 27.59765625 C-12.90166168 26.83590088 -12.61972961 26.07414551 -12.32925415 25.28930664 C-11.7401356 23.69925652 -11.15023447 22.10949614 -10.55957031 20.52001953 C-9.65248243 18.07698861 -8.74998777 15.63229108 -7.84765625 13.1875 C-7.27241275 11.63661585 -6.69690181 10.08583087 -6.12109375 8.53515625 C-5.85130707 7.80296875 -5.58152039 7.07078125 -5.30355835 6.31640625 C-2.9952487 0.12800208 -2.9952487 0.12800208 0 0 Z " fill="#6128AA" transform="translate(62.28515625,160.90234375)"/>
<path d="M0 0 C2.82482199 2.04799594 4.54201967 3.92081996 6.5 6.8125 C6.95410156 9.67504883 6.95410156 9.67504883 6.890625 12.76953125 C6.87128906 14.43725586 6.87128906 14.43725586 6.8515625 16.13867188 C6.81804687 17.28916016 6.78453125 18.43964844 6.75 19.625 C6.73195312 20.79482422 6.71390625 21.96464844 6.6953125 23.16992188 C6.6482644 26.0516178 6.58253709 28.93163797 6.5 31.8125 C3.53 31.8125 0.56 31.8125 -2.5 31.8125 C-2.83 31.1525 -3.16 30.4925 -3.5 29.8125 C-4.16 30.3075 -4.82 30.8025 -5.5 31.3125 C-9.24027313 33.18263657 -12.43178527 33.5369766 -16.5 32.8125 C-19.63780801 31.18548844 -21.74513472 29.76428666 -23.9375 27 C-24.81325348 23.594292 -24.39136765 21.19969708 -23.5 17.8125 C-20.74513108 14.38752783 -18.81269941 12.53254647 -14.5 11.8125 C-12.41765408 11.74506652 -10.33331443 11.72735528 -8.25 11.75 C-7.17234375 11.75902344 -6.0946875 11.76804688 -4.984375 11.77734375 C-4.16453125 11.78894531 -3.3446875 11.80054688 -2.5 11.8125 C-3.72735686 9.26452623 -3.72735686 9.26452623 -5.5 6.8125 C-10.47008299 6.2513616 -13.96958441 6.5472922 -18.5 8.8125 C-19.87562854 7.52284824 -21.20766393 6.18560707 -22.5 4.8125 C-22.5 4.1525 -22.5 3.4925 -22.5 2.8125 C-15.56218713 -2.23318209 -8.12303129 -2.75602847 0 0 Z " fill="#151E37" transform="translate(234.5,174.1875)"/>
<path d="M0 0 C3.36562216 2.40401583 5.43327028 4.32955486 7.625 7.875 C7.625 11.175 7.625 14.475 7.625 17.875 C0.035 17.875 -7.555 17.875 -15.375 17.875 C-13.60648964 21.05574165 -13.60648964 21.05574165 -11.375 23.875 C-6.44260838 24.12161958 -2.87637826 24.12568913 1.625 21.875 C3.3324998 23.15562485 4.99873596 24.49267557 6.625 25.875 C6.625 26.535 6.625 27.195 6.625 27.875 C2.12752178 31.59513631 -1.09430713 32.4219975 -6.875 32.375 C-8.77765625 32.39046875 -8.77765625 32.39046875 -10.71875 32.40625 C-16.05875374 31.63035202 -19.09594294 29.22137585 -22.75 25.375 C-25.35751388 19.75881625 -25.5642897 13.62326697 -23.6796875 7.68359375 C-18.74000171 -1.92596305 -9.50031944 -3.16677315 0 0 Z " fill="#111A34" transform="translate(196.375,174.125)"/>
<path d="M0 0 C12.9 0 12.9 0 17 3 C20.27995861 6.53890271 21.2743502 9.28284269 21.4375 14 C21.24946272 18.31188932 20.47567634 21.37490251 18 25 C12.28191848 30.18201138 8.33414516 29 0 29 C0 19.43 0 9.86 0 0 Z " fill="#F6F6F7" transform="translate(135,169)"/>
<path d="M0 0 C0 14.85 0 29.7 0 45 C-2.97 45 -5.94 45 -9 45 C-9.33 34.11 -9.66 23.22 -10 12 C-12.475 13.485 -12.475 13.485 -15 15 C-15.66 15 -16.32 15 -17 15 C-19.05195843 10.65467626 -19.05195843 10.65467626 -18.84375 8.03125 C-17.65934244 5.17989846 -16.05891794 4.33485726 -13.4375 2.75 C-12.61121094 2.22921875 -11.78492187 1.7084375 -10.93359375 1.171875 C-8 0 -8 0 0 0 Z " fill="#FD5153" transform="translate(109,161)"/>
<path d="M0 0 C1.54429765 2.71651314 3.05601606 5.44986276 4.5625 8.1875 C5.00013672 8.95642578 5.43777344 9.72535156 5.88867188 10.51757812 C9.04983376 16.31719008 9.04983376 16.31719008 8.77734375 20.05078125 C8.39255859 21.01564453 8.39255859 21.01564453 8 22 C4.77131254 22.14584064 1.54347635 22.23424106 -1.6875 22.3125 C-2.59951172 22.35439453 -3.51152344 22.39628906 -4.45117188 22.43945312 C-11.28727077 22.56374583 -11.28727077 22.56374583 -15.02734375 19.60546875 C-15.67832031 18.74566406 -16.32929688 17.88585937 -17 17 C-17.61875 16.34 -18.2375 15.68 -18.875 15 C-20 13 -20 13 -20.1875 10.625 C-18.30781432 6.46990534 -14.78373141 4.39378926 -11 2 C-10.39800781 1.61199219 -9.79601562 1.22398438 -9.17578125 0.82421875 C-6.09309973 -0.3435475 -3.26187301 -0.12545665 0 0 Z " fill="#41197A" transform="translate(193,125)"/>
<path d="M0 0 C2.97 0 5.94 0 9 0 C9.33 12.21 9.66 24.42 10 37 C11.32 37.33 12.64 37.66 14 38 C14.38133299 39.9914056 14.71325582 41.99279077 15 44 C13.34905878 45.65094122 11.45514063 45.28867693 9.1875 45.375 C8.31480469 45.42398438 7.44210937 45.47296875 6.54296875 45.5234375 C4 45 4 45 1.86547852 43.04467773 C-0.69970404 38.85800168 -0.50763645 35.57445672 -0.390625 30.76171875 C-0.38496521 29.88095169 -0.37930542 29.00018463 -0.37347412 28.09272766 C-0.3511533 25.29042307 -0.30096577 22.48941554 -0.25 19.6875 C-0.22992941 17.78322164 -0.21167961 15.87892316 -0.1953125 13.97460938 C-0.15130267 9.31590947 -0.08230549 4.65817435 0 0 Z " fill="#121C36" transform="translate(249,161)"/>
<path d="M0 0 C0.67353516 0.08958984 1.34707031 0.17917969 2.04101562 0.27148438 C2.73388672 0.34173828 3.42675781 0.41199219 4.140625 0.484375 C5.83926046 0.66009591 7.53443203 0.86876118 9.22851562 1.08398438 C8.89851563 2.40398437 8.56851563 3.72398437 8.22851562 5.08398438 C3.77351562 5.57898438 3.77351562 5.57898438 -0.77148438 6.08398438 C-1.15367205 7.74013095 -1.48543539 9.40855462 -1.77148438 11.08398438 C-1.44148437 11.41398438 -1.11148438 11.74398437 -0.77148438 12.08398438 C1.30281532 12.05826734 1.30281532 12.05826734 3.66601562 11.77148438 C4.46910156 11.69285156 5.2721875 11.61421875 6.09960938 11.53320312 C8.43334478 11.24307554 8.43334478 11.24307554 10.22851562 9.08398438 C10.22851562 12.55687811 9.58682019 14.89196864 8.22851562 18.08398438 C5.35093833 20.51885747 1.94953249 20.50067138 -1.74023438 20.40429688 C-5.85661669 19.75517505 -8.676586 17.46450841 -11.20898438 14.27148438 C-12.08473786 10.86577638 -11.66285203 8.47118145 -10.77148438 5.08398438 C-7.5267071 0.79842948 -5.43835231 -0.50404241 0 0 Z " fill="#141D37" transform="translate(221.771484375,186.916015625)"/>
<path d="M0 0 C2.375 1.6875 2.375 1.6875 4.375 4.6875 C3.818125 4.81125 3.26125 4.935 2.6875 5.0625 C0.15385636 5.74726855 -2.20421032 6.67883763 -4.625 7.6875 C-4.955 7.3575 -5.285 7.0275 -5.625 6.6875 C-10.55739162 6.44088042 -14.12362174 6.43681087 -18.625 8.6875 C-20.00062854 7.39784824 -21.33266393 6.06060707 -22.625 4.6875 C-22.625 4.0275 -22.625 3.3675 -22.625 2.6875 C-15.65108967 -2.38443479 -8.11778816 -2.93919916 0 0 Z " fill="#121C37" transform="translate(234.625,174.3125)"/>
<path d="M0 0 C1.2684375 1.2375 1.2684375 1.2375 2.5625 2.5 C5.99464242 5.41854391 8.54026287 5.17152835 13 5 C13.99 6.485 13.99 6.485 15 8 C17.56282742 8.72965366 17.56282742 8.72965366 20 9 C19.41675605 12.22540929 18.47785202 13.9757611 16.1875 16.3125 C15.68605469 16.84488281 15.18460938 17.37726563 14.66796875 17.92578125 C13 19 13 19 10.80078125 18.66796875 C10.20652344 18.44753906 9.61226562 18.22710937 9 18 C8.67 16.68 8.34 15.36 8 14 C6.68 13.67 5.36 13.34 4 13 C4.268125 12.278125 4.53625 11.55625 4.8125 10.8125 C4.874375 9.884375 4.93625 8.95625 5 8 C2.60414714 5.35412766 2.60414714 5.35412766 0 3 C0 2.01 0 1.02 0 0 Z " fill="#6031A0" transform="translate(119,126)"/>
<path d="M0 0 C3.90791244 1.65334757 6.78998799 4.26807489 10 7 C10.99 7.66 11.98 8.32 13 9 C12.01 9 11.02 9 10 9 C10.33 9.99 10.66 10.98 11 12 C10.236875 12.433125 9.47375 12.86625 8.6875 13.3125 C6.0620892 14.82185621 6.0620892 14.82185621 4.4375 16.5625 C2.15479879 18.84520121 0.28282817 19.94487848 -3 20.0859375 C-5.00009034 20.06450796 -7.00006358 20.03278584 -9 20 C-9.33 20.33 -9.66 20.66 -10 21 C-11.66617115 21.04063832 -13.33388095 21.042721 -15 21 C-14.46104623 17.2273236 -13.00464642 15.31787009 -10 13 C-7.75 13.25 -7.75 13.25 -6 14 C-5.67 15.32 -5.34 16.64 -5 18 C-4.01 17.67 -3.02 17.34 -2 17 C-3.98 14.69 -5.96 12.38 -8 10 C-4 12 -4 12 -2 13.5625 C0.04443806 15.03193986 1.54522028 15.56164648 4 16 C2.06143438 12.4136536 0.2775413 10.37339198 -3 8 C-3 7.34 -3 6.68 -3 6 C-0.43548915 7.09907608 1.09554946 8.0984449 3.0625 10.125 C4.90993327 12.34771071 4.90993327 12.34771071 8 12 C7.43191766 8.37547464 6.09258109 6.78521189 3.4375 4.3125 C2.27785215 3.22285101 1.12813455 2.12224351 0 1 C0 0.67 0 0.34 0 0 Z " fill="#5E359A" transform="translate(154,130)"/>
<path d="M0 0 C0.66 0 1.32 0 2 0 C2.83919398 2.26882087 3.67151724 4.53977027 4.5 6.8125 C4.73847656 7.45509766 4.97695312 8.09769531 5.22265625 8.75976562 C6.27068746 11.64933739 7 13.90076061 7 17 C3.04 17 -0.92 17 -5 17 C-1.85714286 5.28571429 -1.85714286 5.28571429 0 0 Z " fill="#EFEAF7" transform="translate(64,172)"/>
<path d="M0 0 C1.51400391 0.01740234 1.51400391 0.01740234 3.05859375 0.03515625 C4.07050781 0.04417969 5.08242187 0.05320313 6.125 0.0625 C7.29869141 0.07990234 7.29869141 0.07990234 8.49609375 0.09765625 C8.24609375 2.97265625 8.24609375 2.97265625 7.49609375 6.09765625 C4.46435275 8.56796373 1.28397642 8.42703735 -2.50390625 8.09765625 C-3.16390625 7.43765625 -3.82390625 6.77765625 -4.50390625 6.09765625 C-3.77826013 0.14735804 -3.77826013 0.14735804 0 0 Z " fill="#E9E9EB" transform="translate(223.50390625,191.90234375)"/>
<path d="M0 0 C1.9375 1.3125 1.9375 1.3125 3 3 C3 3.99 3 4.98 3 6 C-1.62 6 -6.24 6 -11 6 C-8.32025931 -0.69935172 -6.89777982 -0.48405472 0 0 Z " fill="#F3F3F4" transform="translate(192,180)"/>
<path d="M0 0 C0.721875 0.268125 1.44375 0.53625 2.1875 0.8125 C1.60425605 4.03790929 0.66535202 5.7882611 -1.625 8.125 C-2.12644531 8.65738281 -2.62789062 9.18976563 -3.14453125 9.73828125 C-4.8125 10.8125 -4.8125 10.8125 -7.01171875 10.48046875 C-7.60597656 10.26003906 -8.20023438 10.03960937 -8.8125 9.8125 C-8.51012101 6.28474511 -7.78269149 4.77441135 -5.5625 1.9375 C-2.8125 -0.1875 -2.8125 -0.1875 0 0 Z " fill="#512092" transform="translate(136.8125,134.1875)"/>
<path d="M0 0 C0.556875 0.268125 1.11375 0.53625 1.6875 0.8125 C1.34407251 3.90334737 0.42794345 5.13694569 -1.5625 7.625 C-4.3125 9.8125 -4.3125 9.8125 -7.125 9.625 C-7.846875 9.356875 -8.56875 9.08875 -9.3125 8.8125 C-7.66495848 4.76853446 -4.80734346 -0.3897846 0 0 Z " fill="#4D1B93" transform="translate(142.3125,138.1875)"/>
<path d="M0 0 C0.33 0.66 0.66 1.32 1 2 C-0.44404465 5.45438131 -2.25619653 8.68252023 -4 12 C2.6 12.33 9.2 12.66 16 13 C16 13.33 16 13.66 16 14 C9.07 14 2.14 14 -5 14 C-6 10 -6 10 -4.78515625 7.421875 C-4.21667969 6.54015625 -3.64820312 5.6584375 -3.0625 4.75 C-2.49660156 3.85796875 -1.93070312 2.9659375 -1.34765625 2.046875 C-0.90292969 1.37140625 -0.45820312 0.6959375 0 0 Z " fill="#512597" transform="translate(83,133)"/>
<path d="M0 0 C2.625 0.9375 2.625 0.9375 5 2 C4.67 3.65 4.34 5.3 4 7 C1.625 7.625 1.625 7.625 -1 8 C-1.66 7.34 -2.32 6.68 -3 6 C-2.75 3.4375 -2.75 3.4375 -2 1 C-1.34 0.67 -0.68 0.34 0 0 Z " fill="#FC9E9D" transform="translate(178,217)"/>
<path d="M0 0 C0.598125 0.226875 1.19625 0.45375 1.8125 0.6875 C2.4375 3.0625 2.4375 3.0625 2.8125 5.6875 C2.1525 6.3475 1.4925 7.0075 0.8125 7.6875 C-1.8125 7.3125 -1.8125 7.3125 -4.1875 6.6875 C-4.875 4.875 -4.875 4.875 -5.1875 2.6875 C-3.58493056 0.24147296 -2.95482043 -0.4221172 0 0 Z " fill="#81838E" transform="translate(49.1875,217.3125)"/>
<path d="M0 0 C2.97 0.495 2.97 0.495 6 1 C6.625 3.375 6.625 3.375 7 6 C5 8 5 8 2.375 8.125 C1.59125 8.08375 0.8075 8.0425 0 8 C0 5.36 0 2.72 0 0 Z " fill="#7B7D87" transform="translate(78,217)"/>
<path d="M0 0 C1.32 0.33 2.64 0.66 4 1 C4 1.66 4 2.32 4 3 C5.099763 4.56266521 5.099763 4.56266521 6.5 6.125 C7.7375 7.548125 7.7375 7.548125 9 9 C7.125 9.625 7.125 9.625 5 10 C4.34 9.34 3.68 8.68 3 8 C3 7.01 3 6.02 3 5 C-1.24822374 5.47202486 -3.19989709 7.96655518 -6 11 C-6.99 10.34 -7.98 9.68 -9 9 C-8.236875 8.566875 -7.47375 8.13375 -6.6875 7.6875 C-3.05978532 5.40963264 -1.36433599 4.09300798 0 0 Z " fill="#D2C7E3" transform="translate(144,139)"/>
<path d="M0 0 C1.67542976 0.28604898 3.34385343 0.61781233 5 1 C5.04254356 2.99954746 5.04080783 5.00041636 5 7 C4 8 4 8 1.4375 8.0625 C0.633125 8.041875 -0.17125 8.02125 -1 8 C-1.04241723 5.66705225 -1.04092937 3.33297433 -1 1 C-0.67 0.67 -0.34 0.34 0 0 Z " fill="#FC8281" transform="translate(207,217)"/>
<path d="M0 0 C2.49361571 1.20381448 4.68143083 2.45428722 7 4 C7 4.66 7 5.32 7 6 C5.02 6.99 5.02 6.99 3 8 C1.02 6.35 -0.96 4.7 -3 3 C-2.01 2.01 -1.02 1.02 0 0 Z " fill="#1E2743" transform="translate(196,196)"/>
<path d="M0 0 C0.99 0.33 1.98 0.66 3 1 C1.125 6.875 1.125 6.875 0 8 C-1.66617115 8.04063832 -3.33388095 8.042721 -5 8 C-4.45773019 4.20411134 -2.79872437 2.52788007 0 0 Z " fill="#4A198A" transform="translate(144,143)"/>
<path d="M0 0 C1.2065625 0.0309375 1.2065625 0.0309375 2.4375 0.0625 C2.251875 0.825625 2.06625 1.58875 1.875 2.375 C1.20930827 5.15217375 1.20930827 5.15217375 2.4375 8.0625 C0.4575 8.0625 -1.5225 8.0625 -3.5625 8.0625 C-3.60491723 5.72955225 -3.60342937 3.39547433 -3.5625 1.0625 C-2.5625 0.0625 -2.5625 0.0625 0 0 Z " fill="#FC7E7C" transform="translate(247.5625,216.9375)"/>
<path d="M0 0 C1.65 0 3.3 0 5 0 C5.33 2.31 5.66 4.62 6 7 C4.02 7 2.04 7 0 7 C0 4.69 0 2.38 0 0 Z " fill="#5B5C69" transform="translate(64,218)"/>
<path d="M0 0 C1.98 0 3.96 0 6 0 C5.67 1.32 5.34 2.64 5 4 C4.01 4 3.02 4 2 4 C2 4.99 2 5.98 2 7 C1.34 7 0.68 7 0 7 C0 4.69 0 2.38 0 0 Z " fill="#FB7170" transform="translate(167,218)"/>
<path d="M0 0 C0.66 0 1.32 0 2 0 C2.66 2.64 3.32 5.28 4 8 C1.525 7.01 1.525 7.01 -1 6 C-1 6.66 -1 7.32 -1 8 C-1.66 8 -2.32 8 -3 8 C-1.125 1.125 -1.125 1.125 0 0 Z " fill="#FC6F6F" transform="translate(137,217)"/>
<path d="M0 0 C1.65 0 3.3 0 5 0 C5 2.31 5 4.62 5 7 C3.35 7 1.7 7 0 7 C0 4.69 0 2.38 0 0 Z " fill="#5D5F6D" transform="translate(88,218)"/>
<path d="M0 0 C0.66 0 1.32 0 2 0 C2.66 0.66 3.32 1.32 4 2 C4.33 1.34 4.66 0.68 5 0 C5.66 0 6.32 0 7 0 C7 2.31 7 4.62 7 7 C6.34 6.34 5.68 5.68 5 5 C4.01 5 3.02 5 2 5 C1.34 5.66 0.68 6.32 0 7 C0 4.69 0 2.38 0 0 Z " fill="#FC4F50" transform="translate(124,218)"/>
<path d="M0 0 C1.98 0.495 1.98 0.495 4 1 C3.34 1.66 2.68 2.32 2 3 C2.66 3.33 3.32 3.66 4 4 C3.67 5.32 3.34 6.64 3 8 C1.68 8 0.36 8 -1 8 C-1 4.88742431 -0.82638376 2.89234315 0 0 Z " fill="#FD7170" transform="translate(254,217)"/>
<path d="M0 0 C3.86019505 1.80086853 6.75627832 4.23938581 10 7 C10.99 7.66 11.98 8.32 13 9 C12.01 9 11.02 9 10 9 C10.33 9.99 10.66 10.98 11 12 C10.34 12 9.68 12 9 12 C7.99260254 10.33779419 6.99477045 8.66979326 6 7 C4.0667546 4.60692896 2.04570957 2.2972855 0 0 Z " fill="#67409E" transform="translate(154,130)"/>
<path d="M0 0 C0.99 0.33 1.98 0.66 3 1 C4.1875 4.0625 4.1875 4.0625 5 7 C4.34 7 3.68 7 3 7 C3 6.34 3 5.68 3 5 C1.35 5.66 -0.3 6.32 -2 7 C-1.34 4.69 -0.68 2.38 0 0 Z " fill="#4A4D5D" transform="translate(98,218)"/>
<path d="M0 0 C0.99 0.33 1.98 0.66 3 1 C3 3.33333333 3 5.66666667 3 8 C1.35 7.67 -0.3 7.34 -2 7 C-1.34 4.69 -0.68 2.38 0 0 Z " fill="#FC6B68" transform="translate(187,217)"/>
<path d="M0 0 C3 1 3 1 4 3 C4.66 2.01 5.32 1.02 6 0 C6 2.31 6 4.62 6 7 C5.34 7 4.68 7 4 7 C3.34 6.01 2.68 5.02 2 4 C1.34 4.99 0.68 5.98 0 7 C0 4.69 0 2.38 0 0 Z " fill="#383A4E" transform="translate(55,218)"/>
<path d="M0 0 C0.66 0.66 1.32 1.32 2 2 C-1.08898768 2.91525561 -3.79359799 3 -7 3 C-7.99 3.33 -8.98 3.66 -10 4 C-9.67 3.01 -9.34 2.02 -9 1 C-5.75778445 -0.08073852 -3.39597063 -0.21676408 0 0 Z " fill="#7341AF" transform="translate(155,107)"/>
<path d="M0 0 C2 2 2 2 2 5 C4.43717258 4.72965366 4.43717258 4.72965366 7 4 C7.66 3.01 8.32 2.02 9 1 C9.33 2.65 9.66 4.3 10 6 C7.03 6 4.06 6 1 6 C0.67 4.02 0.34 2.04 0 0 Z " fill="#512297" transform="translate(76,200)"/>
<path d="M0 0 C1.32 0.33 2.64 0.66 4 1 C3.01 1.495 3.01 1.495 2 2 C2.99 2.33 3.98 2.66 5 3 C4.67 4.32 4.34 5.64 4 7 C2.68 7 1.36 7 0 7 C0 4.66666667 0 2.33333333 0 0 Z " fill="#FB5E5F" transform="translate(194,218)"/>
<path d="M0 0 C0.66 0 1.32 0 2 0 C2.66 1.65 3.32 3.3 4 5 C1.525 6.485 1.525 6.485 -1 8 C-0.67 5.36 -0.34 2.72 0 0 Z " fill="#5A2996" transform="translate(152,52)"/>
<path d="M0 0 C3.3 0 6.6 0 10 0 C10 0.33 10 0.66 10 1 C6.97265625 1.24414062 6.97265625 1.24414062 3.9453125 1.48828125 C1.60480784 1.87393036 1.60480784 1.87393036 0 5 C-0.66 5 -1.32 5 -2 5 C-1.34 3.35 -0.68 1.7 0 0 Z " fill="#814BC6" transform="translate(60,161)"/>
<path d="M0 0 C1.46484375 1.30208333 2.9296875 2.60416667 4.39453125 3.90625 C6.089448 5.28151241 6.089448 5.28151241 9 5 C9 5.66 9 6.32 9 7 C5.64708882 7.37254569 4.3961577 7.31050198 1.6875 5.1875 C0 3 0 3 0 0 Z " fill="#6A3DA7" transform="translate(119,126)"/>
</svg>
